<mxfile host="app.diagrams.net" modified="2023-08-02T04:35:09.319Z" agent="Mozilla/5.0 (Windows NT 10.0; Win64; x64) AppleWebKit/537.36 (KHTML, like Gecko) Chrome/115.0.0.0 Safari/537.36" etag="MLN54f_MoK3MCS0QNg1V" version="21.6.6" type="github">
  <diagram id="C5RBs43oDa-KdzZeNtuy" name="Page-1">
    <mxGraphModel dx="1477" dy="674" grid="1" gridSize="10" guides="1" tooltips="1" connect="1" arrows="1" fold="1" page="1" pageScale="1" pageWidth="827" pageHeight="1169" math="0" shadow="0">
      <root>
        <mxCell id="WIyWlLk6GJQsqaUBKTNV-0" />
        <mxCell id="WIyWlLk6GJQsqaUBKTNV-1" parent="WIyWlLk6GJQsqaUBKTNV-0" />
        <mxCell id="TtT6zjxbn2nU0OrpLk1x-77" value="&lt;font color=&quot;#000000&quot;&gt;Admin（管理者）&lt;/font&gt;" style="shape=table;startSize=30;container=1;collapsible=1;childLayout=tableLayout;fixedRows=1;rowLines=0;fontStyle=1;align=center;resizeLast=1;html=1;strokeColor=#10739e;fontFamily=Helvetica;fontSize=12;fillColor=#b1ddf0;labelBackgroundColor=none;" parent="WIyWlLk6GJQsqaUBKTNV-1" vertex="1">
          <mxGeometry x="1560" y="10" width="180" height="180" as="geometry">
            <mxRectangle x="50" y="90" width="80" height="30" as="alternateBounds" />
          </mxGeometry>
        </mxCell>
        <mxCell id="TtT6zjxbn2nU0OrpLk1x-78" value="" style="shape=tableRow;horizontal=0;startSize=0;swimlaneHead=0;swimlaneBody=0;fillColor=none;collapsible=0;dropTarget=0;points=[[0,0.5],[1,0.5]];portConstraint=eastwest;top=0;left=0;right=0;bottom=1;strokeColor=#788AA3;fontFamily=Helvetica;fontSize=12;fontColor=#46495D;html=1;labelBackgroundColor=none;" parent="TtT6zjxbn2nU0OrpLk1x-77" vertex="1">
          <mxGeometry y="30" width="180" height="30" as="geometry" />
        </mxCell>
        <mxCell id="TtT6zjxbn2nU0OrpLk1x-79" value="PK" style="shape=partialRectangle;connectable=0;fillColor=none;top=0;left=0;bottom=0;right=0;fontStyle=1;overflow=hidden;whiteSpace=wrap;html=1;strokeColor=#788AA3;fontFamily=Helvetica;fontSize=12;fontColor=#46495D;startSize=23;labelBackgroundColor=none;" parent="TtT6zjxbn2nU0OrpLk1x-78" vertex="1">
          <mxGeometry width="30" height="30" as="geometry">
            <mxRectangle width="30" height="30" as="alternateBounds" />
          </mxGeometry>
        </mxCell>
        <mxCell id="TtT6zjxbn2nU0OrpLk1x-80" value="admin_id" style="shape=partialRectangle;connectable=0;fillColor=none;top=0;left=0;bottom=0;right=0;align=left;spacingLeft=6;fontStyle=5;overflow=hidden;whiteSpace=wrap;html=1;strokeColor=#788AA3;fontFamily=Helvetica;fontSize=12;fontColor=#46495D;startSize=23;labelBackgroundColor=none;" parent="TtT6zjxbn2nU0OrpLk1x-78" vertex="1">
          <mxGeometry x="30" width="150" height="30" as="geometry">
            <mxRectangle width="150" height="30" as="alternateBounds" />
          </mxGeometry>
        </mxCell>
        <mxCell id="TtT6zjxbn2nU0OrpLk1x-81" value="" style="shape=tableRow;horizontal=0;startSize=0;swimlaneHead=0;swimlaneBody=0;fillColor=none;collapsible=0;dropTarget=0;points=[[0,0.5],[1,0.5]];portConstraint=eastwest;top=0;left=0;right=0;bottom=0;strokeColor=#788AA3;fontFamily=Helvetica;fontSize=12;fontColor=#46495D;html=1;labelBackgroundColor=none;" parent="TtT6zjxbn2nU0OrpLk1x-77" vertex="1">
          <mxGeometry y="60" width="180" height="30" as="geometry" />
        </mxCell>
        <mxCell id="TtT6zjxbn2nU0OrpLk1x-82" value="" style="shape=partialRectangle;connectable=0;fillColor=none;top=0;left=0;bottom=0;right=0;editable=1;overflow=hidden;whiteSpace=wrap;html=1;strokeColor=#788AA3;fontFamily=Helvetica;fontSize=12;fontColor=#46495D;startSize=23;labelBackgroundColor=none;" parent="TtT6zjxbn2nU0OrpLk1x-81" vertex="1">
          <mxGeometry width="30" height="30" as="geometry">
            <mxRectangle width="30" height="30" as="alternateBounds" />
          </mxGeometry>
        </mxCell>
        <mxCell id="TtT6zjxbn2nU0OrpLk1x-83" value="email" style="shape=partialRectangle;connectable=0;fillColor=none;top=0;left=0;bottom=0;right=0;align=left;spacingLeft=6;overflow=hidden;whiteSpace=wrap;html=1;strokeColor=#788AA3;fontFamily=Helvetica;fontSize=12;fontColor=#46495D;startSize=23;labelBackgroundColor=none;" parent="TtT6zjxbn2nU0OrpLk1x-81" vertex="1">
          <mxGeometry x="30" width="150" height="30" as="geometry">
            <mxRectangle width="150" height="30" as="alternateBounds" />
          </mxGeometry>
        </mxCell>
        <mxCell id="TtT6zjxbn2nU0OrpLk1x-84" value="" style="shape=tableRow;horizontal=0;startSize=0;swimlaneHead=0;swimlaneBody=0;fillColor=none;collapsible=0;dropTarget=0;points=[[0,0.5],[1,0.5]];portConstraint=eastwest;top=0;left=0;right=0;bottom=0;strokeColor=#788AA3;fontFamily=Helvetica;fontSize=12;fontColor=#46495D;html=1;labelBackgroundColor=none;" parent="TtT6zjxbn2nU0OrpLk1x-77" vertex="1">
          <mxGeometry y="90" width="180" height="30" as="geometry" />
        </mxCell>
        <mxCell id="TtT6zjxbn2nU0OrpLk1x-85" value="" style="shape=partialRectangle;connectable=0;fillColor=none;top=0;left=0;bottom=0;right=0;editable=1;overflow=hidden;whiteSpace=wrap;html=1;strokeColor=#788AA3;fontFamily=Helvetica;fontSize=12;fontColor=#46495D;startSize=23;labelBackgroundColor=none;" parent="TtT6zjxbn2nU0OrpLk1x-84" vertex="1">
          <mxGeometry width="30" height="30" as="geometry">
            <mxRectangle width="30" height="30" as="alternateBounds" />
          </mxGeometry>
        </mxCell>
        <mxCell id="TtT6zjxbn2nU0OrpLk1x-86" value="password" style="shape=partialRectangle;connectable=0;fillColor=none;top=0;left=0;bottom=0;right=0;align=left;spacingLeft=6;overflow=hidden;whiteSpace=wrap;html=1;strokeColor=#788AA3;fontFamily=Helvetica;fontSize=12;fontColor=#46495D;startSize=23;labelBackgroundColor=none;" parent="TtT6zjxbn2nU0OrpLk1x-84" vertex="1">
          <mxGeometry x="30" width="150" height="30" as="geometry">
            <mxRectangle width="150" height="30" as="alternateBounds" />
          </mxGeometry>
        </mxCell>
        <mxCell id="TtT6zjxbn2nU0OrpLk1x-87" value="" style="shape=tableRow;horizontal=0;startSize=0;swimlaneHead=0;swimlaneBody=0;fillColor=none;collapsible=0;dropTarget=0;points=[[0,0.5],[1,0.5]];portConstraint=eastwest;top=0;left=0;right=0;bottom=0;strokeColor=#788AA3;fontFamily=Helvetica;fontSize=12;fontColor=#46495D;html=1;labelBackgroundColor=none;" parent="TtT6zjxbn2nU0OrpLk1x-77" vertex="1">
          <mxGeometry y="120" width="180" height="30" as="geometry" />
        </mxCell>
        <mxCell id="TtT6zjxbn2nU0OrpLk1x-88" value="" style="shape=partialRectangle;connectable=0;fillColor=none;top=0;left=0;bottom=0;right=0;editable=1;overflow=hidden;whiteSpace=wrap;html=1;strokeColor=#788AA3;fontFamily=Helvetica;fontSize=12;fontColor=#46495D;startSize=23;labelBackgroundColor=none;" parent="TtT6zjxbn2nU0OrpLk1x-87" vertex="1">
          <mxGeometry width="30" height="30" as="geometry">
            <mxRectangle width="30" height="30" as="alternateBounds" />
          </mxGeometry>
        </mxCell>
        <mxCell id="TtT6zjxbn2nU0OrpLk1x-89" value="created_at" style="shape=partialRectangle;connectable=0;fillColor=none;top=0;left=0;bottom=0;right=0;align=left;spacingLeft=6;overflow=hidden;whiteSpace=wrap;html=1;strokeColor=#788AA3;fontFamily=Helvetica;fontSize=12;fontColor=#46495D;startSize=23;labelBackgroundColor=none;" parent="TtT6zjxbn2nU0OrpLk1x-87" vertex="1">
          <mxGeometry x="30" width="150" height="30" as="geometry">
            <mxRectangle width="150" height="30" as="alternateBounds" />
          </mxGeometry>
        </mxCell>
        <mxCell id="TtT6zjxbn2nU0OrpLk1x-180" value="" style="shape=tableRow;horizontal=0;startSize=0;swimlaneHead=0;swimlaneBody=0;fillColor=none;collapsible=0;dropTarget=0;points=[[0,0.5],[1,0.5]];portConstraint=eastwest;top=0;left=0;right=0;bottom=0;strokeColor=#788AA3;fontFamily=Helvetica;fontSize=12;fontColor=#46495D;html=1;labelBackgroundColor=none;" parent="TtT6zjxbn2nU0OrpLk1x-77" vertex="1">
          <mxGeometry y="150" width="180" height="30" as="geometry" />
        </mxCell>
        <mxCell id="TtT6zjxbn2nU0OrpLk1x-181" value="" style="shape=partialRectangle;connectable=0;fillColor=none;top=0;left=0;bottom=0;right=0;editable=1;overflow=hidden;whiteSpace=wrap;html=1;strokeColor=#788AA3;fontFamily=Helvetica;fontSize=12;fontColor=#46495D;startSize=23;labelBackgroundColor=none;" parent="TtT6zjxbn2nU0OrpLk1x-180" vertex="1">
          <mxGeometry width="30" height="30" as="geometry">
            <mxRectangle width="30" height="30" as="alternateBounds" />
          </mxGeometry>
        </mxCell>
        <mxCell id="TtT6zjxbn2nU0OrpLk1x-182" value="updated_at" style="shape=partialRectangle;connectable=0;fillColor=none;top=0;left=0;bottom=0;right=0;align=left;spacingLeft=6;overflow=hidden;whiteSpace=wrap;html=1;strokeColor=#788AA3;fontFamily=Helvetica;fontSize=12;fontColor=#46495D;startSize=23;labelBackgroundColor=none;" parent="TtT6zjxbn2nU0OrpLk1x-180" vertex="1">
          <mxGeometry x="30" width="150" height="30" as="geometry">
            <mxRectangle width="150" height="30" as="alternateBounds" />
          </mxGeometry>
        </mxCell>
        <mxCell id="TtT6zjxbn2nU0OrpLk1x-122" value="&lt;font color=&quot;#000000&quot;&gt;Users（ユーザー）&lt;/font&gt;" style="shape=table;startSize=30;container=1;collapsible=1;childLayout=tableLayout;fixedRows=1;rowLines=0;fontStyle=1;align=center;resizeLast=1;html=1;fontFamily=Helvetica;fontSize=12;fillColor=#b0e3e6;labelBackgroundColor=none;strokeColor=#0e8088;" parent="WIyWlLk6GJQsqaUBKTNV-1" vertex="1">
          <mxGeometry x="820" y="470" width="180" height="360" as="geometry" />
        </mxCell>
        <mxCell id="TtT6zjxbn2nU0OrpLk1x-123" value="" style="shape=tableRow;horizontal=0;startSize=0;swimlaneHead=0;swimlaneBody=0;fillColor=none;collapsible=0;dropTarget=0;points=[[0,0.5],[1,0.5]];portConstraint=eastwest;top=0;left=0;right=0;bottom=1;strokeColor=#788AA3;fontFamily=Helvetica;fontSize=12;fontColor=#46495D;html=1;labelBackgroundColor=none;" parent="TtT6zjxbn2nU0OrpLk1x-122" vertex="1">
          <mxGeometry y="30" width="180" height="30" as="geometry" />
        </mxCell>
        <mxCell id="TtT6zjxbn2nU0OrpLk1x-124" value="PK" style="shape=partialRectangle;connectable=0;fillColor=none;top=0;left=0;bottom=0;right=0;fontStyle=1;overflow=hidden;whiteSpace=wrap;html=1;strokeColor=#788AA3;fontFamily=Helvetica;fontSize=12;fontColor=#46495D;startSize=23;labelBackgroundColor=none;" parent="TtT6zjxbn2nU0OrpLk1x-123" vertex="1">
          <mxGeometry width="30" height="30" as="geometry">
            <mxRectangle width="30" height="30" as="alternateBounds" />
          </mxGeometry>
        </mxCell>
        <mxCell id="TtT6zjxbn2nU0OrpLk1x-125" value="user_id" style="shape=partialRectangle;connectable=0;fillColor=none;top=0;left=0;bottom=0;right=0;align=left;spacingLeft=6;fontStyle=5;overflow=hidden;whiteSpace=wrap;html=1;strokeColor=#788AA3;fontFamily=Helvetica;fontSize=12;fontColor=#46495D;startSize=23;labelBackgroundColor=none;" parent="TtT6zjxbn2nU0OrpLk1x-123" vertex="1">
          <mxGeometry x="30" width="150" height="30" as="geometry">
            <mxRectangle width="150" height="30" as="alternateBounds" />
          </mxGeometry>
        </mxCell>
        <mxCell id="TtT6zjxbn2nU0OrpLk1x-126" value="" style="shape=tableRow;horizontal=0;startSize=0;swimlaneHead=0;swimlaneBody=0;fillColor=none;collapsible=0;dropTarget=0;points=[[0,0.5],[1,0.5]];portConstraint=eastwest;top=0;left=0;right=0;bottom=0;strokeColor=#788AA3;fontFamily=Helvetica;fontSize=12;fontColor=#46495D;html=1;labelBackgroundColor=none;" parent="TtT6zjxbn2nU0OrpLk1x-122" vertex="1">
          <mxGeometry y="60" width="180" height="30" as="geometry" />
        </mxCell>
        <mxCell id="TtT6zjxbn2nU0OrpLk1x-127" value="" style="shape=partialRectangle;connectable=0;fillColor=none;top=0;left=0;bottom=0;right=0;editable=1;overflow=hidden;whiteSpace=wrap;html=1;strokeColor=#788AA3;fontFamily=Helvetica;fontSize=12;fontColor=#46495D;startSize=23;labelBackgroundColor=none;" parent="TtT6zjxbn2nU0OrpLk1x-126" vertex="1">
          <mxGeometry width="30" height="30" as="geometry">
            <mxRectangle width="30" height="30" as="alternateBounds" />
          </mxGeometry>
        </mxCell>
        <mxCell id="TtT6zjxbn2nU0OrpLk1x-128" value="last_name" style="shape=partialRectangle;connectable=0;fillColor=none;top=0;left=0;bottom=0;right=0;align=left;spacingLeft=6;overflow=hidden;whiteSpace=wrap;html=1;strokeColor=#788AA3;fontFamily=Helvetica;fontSize=12;fontColor=#46495D;startSize=23;labelBackgroundColor=none;" parent="TtT6zjxbn2nU0OrpLk1x-126" vertex="1">
          <mxGeometry x="30" width="150" height="30" as="geometry">
            <mxRectangle width="150" height="30" as="alternateBounds" />
          </mxGeometry>
        </mxCell>
        <mxCell id="AqgVQKVdH_DSCZpF_KZi-0" value="" style="shape=tableRow;horizontal=0;startSize=0;swimlaneHead=0;swimlaneBody=0;fillColor=none;collapsible=0;dropTarget=0;points=[[0,0.5],[1,0.5]];portConstraint=eastwest;top=0;left=0;right=0;bottom=0;strokeColor=#788AA3;fontFamily=Helvetica;fontSize=12;fontColor=#46495D;html=1;labelBackgroundColor=none;" parent="TtT6zjxbn2nU0OrpLk1x-122" vertex="1">
          <mxGeometry y="90" width="180" height="30" as="geometry" />
        </mxCell>
        <mxCell id="AqgVQKVdH_DSCZpF_KZi-1" value="" style="shape=partialRectangle;connectable=0;fillColor=none;top=0;left=0;bottom=0;right=0;editable=1;overflow=hidden;whiteSpace=wrap;html=1;strokeColor=#788AA3;fontFamily=Helvetica;fontSize=12;fontColor=#46495D;startSize=23;labelBackgroundColor=none;" parent="AqgVQKVdH_DSCZpF_KZi-0" vertex="1">
          <mxGeometry width="30" height="30" as="geometry">
            <mxRectangle width="30" height="30" as="alternateBounds" />
          </mxGeometry>
        </mxCell>
        <mxCell id="AqgVQKVdH_DSCZpF_KZi-2" value="first_name" style="shape=partialRectangle;connectable=0;fillColor=none;top=0;left=0;bottom=0;right=0;align=left;spacingLeft=6;overflow=hidden;whiteSpace=wrap;html=1;strokeColor=#788AA3;fontFamily=Helvetica;fontSize=12;fontColor=#46495D;startSize=23;labelBackgroundColor=none;" parent="AqgVQKVdH_DSCZpF_KZi-0" vertex="1">
          <mxGeometry x="30" width="150" height="30" as="geometry">
            <mxRectangle width="150" height="30" as="alternateBounds" />
          </mxGeometry>
        </mxCell>
        <mxCell id="ygLPfD_EKUeMDjVUtWBq-19" value="" style="shape=tableRow;horizontal=0;startSize=0;swimlaneHead=0;swimlaneBody=0;fillColor=none;collapsible=0;dropTarget=0;points=[[0,0.5],[1,0.5]];portConstraint=eastwest;top=0;left=0;right=0;bottom=0;strokeColor=#788AA3;fontFamily=Helvetica;fontSize=12;fontColor=#46495D;html=1;labelBackgroundColor=none;" parent="TtT6zjxbn2nU0OrpLk1x-122" vertex="1">
          <mxGeometry y="120" width="180" height="30" as="geometry" />
        </mxCell>
        <mxCell id="ygLPfD_EKUeMDjVUtWBq-20" value="" style="shape=partialRectangle;connectable=0;fillColor=none;top=0;left=0;bottom=0;right=0;editable=1;overflow=hidden;whiteSpace=wrap;html=1;strokeColor=#788AA3;fontFamily=Helvetica;fontSize=12;fontColor=#46495D;startSize=23;labelBackgroundColor=none;" parent="ygLPfD_EKUeMDjVUtWBq-19" vertex="1">
          <mxGeometry width="30" height="30" as="geometry">
            <mxRectangle width="30" height="30" as="alternateBounds" />
          </mxGeometry>
        </mxCell>
        <mxCell id="ygLPfD_EKUeMDjVUtWBq-21" value="last_name_kana" style="shape=partialRectangle;connectable=0;fillColor=none;top=0;left=0;bottom=0;right=0;align=left;spacingLeft=6;overflow=hidden;whiteSpace=wrap;html=1;strokeColor=#788AA3;fontFamily=Helvetica;fontSize=12;fontColor=#46495D;startSize=23;labelBackgroundColor=none;" parent="ygLPfD_EKUeMDjVUtWBq-19" vertex="1">
          <mxGeometry x="30" width="150" height="30" as="geometry">
            <mxRectangle width="150" height="30" as="alternateBounds" />
          </mxGeometry>
        </mxCell>
        <mxCell id="ygLPfD_EKUeMDjVUtWBq-22" value="" style="shape=tableRow;horizontal=0;startSize=0;swimlaneHead=0;swimlaneBody=0;fillColor=none;collapsible=0;dropTarget=0;points=[[0,0.5],[1,0.5]];portConstraint=eastwest;top=0;left=0;right=0;bottom=0;strokeColor=#788AA3;fontFamily=Helvetica;fontSize=12;fontColor=#46495D;html=1;labelBackgroundColor=none;" parent="TtT6zjxbn2nU0OrpLk1x-122" vertex="1">
          <mxGeometry y="150" width="180" height="30" as="geometry" />
        </mxCell>
        <mxCell id="ygLPfD_EKUeMDjVUtWBq-23" value="" style="shape=partialRectangle;connectable=0;fillColor=none;top=0;left=0;bottom=0;right=0;editable=1;overflow=hidden;whiteSpace=wrap;html=1;strokeColor=#788AA3;fontFamily=Helvetica;fontSize=12;fontColor=#46495D;startSize=23;labelBackgroundColor=none;" parent="ygLPfD_EKUeMDjVUtWBq-22" vertex="1">
          <mxGeometry width="30" height="30" as="geometry">
            <mxRectangle width="30" height="30" as="alternateBounds" />
          </mxGeometry>
        </mxCell>
        <mxCell id="ygLPfD_EKUeMDjVUtWBq-24" value="first_name_kana" style="shape=partialRectangle;connectable=0;fillColor=none;top=0;left=0;bottom=0;right=0;align=left;spacingLeft=6;overflow=hidden;whiteSpace=wrap;html=1;strokeColor=#788AA3;fontFamily=Helvetica;fontSize=12;fontColor=#46495D;startSize=23;labelBackgroundColor=none;" parent="ygLPfD_EKUeMDjVUtWBq-22" vertex="1">
          <mxGeometry x="30" width="150" height="30" as="geometry">
            <mxRectangle width="150" height="30" as="alternateBounds" />
          </mxGeometry>
        </mxCell>
        <mxCell id="ygLPfD_EKUeMDjVUtWBq-25" value="" style="shape=tableRow;horizontal=0;startSize=0;swimlaneHead=0;swimlaneBody=0;fillColor=none;collapsible=0;dropTarget=0;points=[[0,0.5],[1,0.5]];portConstraint=eastwest;top=0;left=0;right=0;bottom=0;strokeColor=#788AA3;fontFamily=Helvetica;fontSize=12;fontColor=#46495D;html=1;labelBackgroundColor=none;" parent="TtT6zjxbn2nU0OrpLk1x-122" vertex="1">
          <mxGeometry y="180" width="180" height="30" as="geometry" />
        </mxCell>
        <mxCell id="ygLPfD_EKUeMDjVUtWBq-26" value="" style="shape=partialRectangle;connectable=0;fillColor=none;top=0;left=0;bottom=0;right=0;editable=1;overflow=hidden;whiteSpace=wrap;html=1;strokeColor=#788AA3;fontFamily=Helvetica;fontSize=12;fontColor=#46495D;startSize=23;labelBackgroundColor=none;" parent="ygLPfD_EKUeMDjVUtWBq-25" vertex="1">
          <mxGeometry width="30" height="30" as="geometry">
            <mxRectangle width="30" height="30" as="alternateBounds" />
          </mxGeometry>
        </mxCell>
        <mxCell id="ygLPfD_EKUeMDjVUtWBq-27" value="nickname" style="shape=partialRectangle;connectable=0;fillColor=none;top=0;left=0;bottom=0;right=0;align=left;spacingLeft=6;overflow=hidden;whiteSpace=wrap;html=1;strokeColor=#788AA3;fontFamily=Helvetica;fontSize=12;fontColor=#46495D;startSize=23;labelBackgroundColor=none;" parent="ygLPfD_EKUeMDjVUtWBq-25" vertex="1">
          <mxGeometry x="30" width="150" height="30" as="geometry">
            <mxRectangle width="150" height="30" as="alternateBounds" />
          </mxGeometry>
        </mxCell>
        <mxCell id="TtT6zjxbn2nU0OrpLk1x-129" value="" style="shape=tableRow;horizontal=0;startSize=0;swimlaneHead=0;swimlaneBody=0;fillColor=none;collapsible=0;dropTarget=0;points=[[0,0.5],[1,0.5]];portConstraint=eastwest;top=0;left=0;right=0;bottom=0;strokeColor=#788AA3;fontFamily=Helvetica;fontSize=12;fontColor=#46495D;html=1;labelBackgroundColor=none;" parent="TtT6zjxbn2nU0OrpLk1x-122" vertex="1">
          <mxGeometry y="210" width="180" height="30" as="geometry" />
        </mxCell>
        <mxCell id="TtT6zjxbn2nU0OrpLk1x-130" value="" style="shape=partialRectangle;connectable=0;fillColor=none;top=0;left=0;bottom=0;right=0;editable=1;overflow=hidden;whiteSpace=wrap;html=1;strokeColor=#788AA3;fontFamily=Helvetica;fontSize=12;fontColor=#46495D;startSize=23;labelBackgroundColor=none;" parent="TtT6zjxbn2nU0OrpLk1x-129" vertex="1">
          <mxGeometry width="30" height="30" as="geometry">
            <mxRectangle width="30" height="30" as="alternateBounds" />
          </mxGeometry>
        </mxCell>
        <mxCell id="TtT6zjxbn2nU0OrpLk1x-131" value="email" style="shape=partialRectangle;connectable=0;fillColor=none;top=0;left=0;bottom=0;right=0;align=left;spacingLeft=6;overflow=hidden;whiteSpace=wrap;html=1;strokeColor=#788AA3;fontFamily=Helvetica;fontSize=12;fontColor=#46495D;startSize=23;labelBackgroundColor=none;" parent="TtT6zjxbn2nU0OrpLk1x-129" vertex="1">
          <mxGeometry x="30" width="150" height="30" as="geometry">
            <mxRectangle width="150" height="30" as="alternateBounds" />
          </mxGeometry>
        </mxCell>
        <mxCell id="TtT6zjxbn2nU0OrpLk1x-132" value="" style="shape=tableRow;horizontal=0;startSize=0;swimlaneHead=0;swimlaneBody=0;fillColor=none;collapsible=0;dropTarget=0;points=[[0,0.5],[1,0.5]];portConstraint=eastwest;top=0;left=0;right=0;bottom=0;strokeColor=#788AA3;fontFamily=Helvetica;fontSize=12;fontColor=#46495D;html=1;labelBackgroundColor=none;" parent="TtT6zjxbn2nU0OrpLk1x-122" vertex="1">
          <mxGeometry y="240" width="180" height="30" as="geometry" />
        </mxCell>
        <mxCell id="TtT6zjxbn2nU0OrpLk1x-133" value="" style="shape=partialRectangle;connectable=0;fillColor=none;top=0;left=0;bottom=0;right=0;editable=1;overflow=hidden;whiteSpace=wrap;html=1;strokeColor=#788AA3;fontFamily=Helvetica;fontSize=12;fontColor=#46495D;startSize=23;labelBackgroundColor=none;" parent="TtT6zjxbn2nU0OrpLk1x-132" vertex="1">
          <mxGeometry width="30" height="30" as="geometry">
            <mxRectangle width="30" height="30" as="alternateBounds" />
          </mxGeometry>
        </mxCell>
        <mxCell id="TtT6zjxbn2nU0OrpLk1x-134" value="password" style="shape=partialRectangle;connectable=0;fillColor=none;top=0;left=0;bottom=0;right=0;align=left;spacingLeft=6;overflow=hidden;whiteSpace=wrap;html=1;strokeColor=#788AA3;fontFamily=Helvetica;fontSize=12;fontColor=#46495D;startSize=23;labelBackgroundColor=none;" parent="TtT6zjxbn2nU0OrpLk1x-132" vertex="1">
          <mxGeometry x="30" width="150" height="30" as="geometry">
            <mxRectangle width="150" height="30" as="alternateBounds" />
          </mxGeometry>
        </mxCell>
        <mxCell id="TtT6zjxbn2nU0OrpLk1x-153" value="" style="shape=tableRow;horizontal=0;startSize=0;swimlaneHead=0;swimlaneBody=0;fillColor=none;collapsible=0;dropTarget=0;points=[[0,0.5],[1,0.5]];portConstraint=eastwest;top=0;left=0;right=0;bottom=0;strokeColor=#788AA3;fontFamily=Helvetica;fontSize=12;fontColor=#46495D;html=1;labelBackgroundColor=none;" parent="TtT6zjxbn2nU0OrpLk1x-122" vertex="1">
          <mxGeometry y="270" width="180" height="30" as="geometry" />
        </mxCell>
        <mxCell id="TtT6zjxbn2nU0OrpLk1x-154" value="" style="shape=partialRectangle;connectable=0;fillColor=none;top=0;left=0;bottom=0;right=0;editable=1;overflow=hidden;whiteSpace=wrap;html=1;strokeColor=#788AA3;fontFamily=Helvetica;fontSize=12;fontColor=#46495D;startSize=23;labelBackgroundColor=none;" parent="TtT6zjxbn2nU0OrpLk1x-153" vertex="1">
          <mxGeometry width="30" height="30" as="geometry">
            <mxRectangle width="30" height="30" as="alternateBounds" />
          </mxGeometry>
        </mxCell>
        <mxCell id="TtT6zjxbn2nU0OrpLk1x-155" value="introduction" style="shape=partialRectangle;connectable=0;fillColor=none;top=0;left=0;bottom=0;right=0;align=left;spacingLeft=6;overflow=hidden;whiteSpace=wrap;html=1;strokeColor=#788AA3;fontFamily=Helvetica;fontSize=12;fontColor=#46495D;startSize=23;labelBackgroundColor=none;" parent="TtT6zjxbn2nU0OrpLk1x-153" vertex="1">
          <mxGeometry x="30" width="150" height="30" as="geometry">
            <mxRectangle width="150" height="30" as="alternateBounds" />
          </mxGeometry>
        </mxCell>
        <mxCell id="TtT6zjxbn2nU0OrpLk1x-174" value="" style="shape=tableRow;horizontal=0;startSize=0;swimlaneHead=0;swimlaneBody=0;fillColor=none;collapsible=0;dropTarget=0;points=[[0,0.5],[1,0.5]];portConstraint=eastwest;top=0;left=0;right=0;bottom=0;strokeColor=#788AA3;fontFamily=Helvetica;fontSize=12;fontColor=#46495D;html=1;labelBackgroundColor=none;" parent="TtT6zjxbn2nU0OrpLk1x-122" vertex="1">
          <mxGeometry y="300" width="180" height="30" as="geometry" />
        </mxCell>
        <mxCell id="TtT6zjxbn2nU0OrpLk1x-175" value="" style="shape=partialRectangle;connectable=0;fillColor=none;top=0;left=0;bottom=0;right=0;editable=1;overflow=hidden;whiteSpace=wrap;html=1;strokeColor=#788AA3;fontFamily=Helvetica;fontSize=12;fontColor=#46495D;startSize=23;labelBackgroundColor=none;" parent="TtT6zjxbn2nU0OrpLk1x-174" vertex="1">
          <mxGeometry width="30" height="30" as="geometry">
            <mxRectangle width="30" height="30" as="alternateBounds" />
          </mxGeometry>
        </mxCell>
        <mxCell id="TtT6zjxbn2nU0OrpLk1x-176" value="created_at" style="shape=partialRectangle;connectable=0;fillColor=none;top=0;left=0;bottom=0;right=0;align=left;spacingLeft=6;overflow=hidden;whiteSpace=wrap;html=1;strokeColor=#788AA3;fontFamily=Helvetica;fontSize=12;fontColor=#46495D;startSize=23;labelBackgroundColor=none;" parent="TtT6zjxbn2nU0OrpLk1x-174" vertex="1">
          <mxGeometry x="30" width="150" height="30" as="geometry">
            <mxRectangle width="150" height="30" as="alternateBounds" />
          </mxGeometry>
        </mxCell>
        <mxCell id="TtT6zjxbn2nU0OrpLk1x-177" value="" style="shape=tableRow;horizontal=0;startSize=0;swimlaneHead=0;swimlaneBody=0;fillColor=none;collapsible=0;dropTarget=0;points=[[0,0.5],[1,0.5]];portConstraint=eastwest;top=0;left=0;right=0;bottom=0;strokeColor=#788AA3;fontFamily=Helvetica;fontSize=12;fontColor=#46495D;html=1;labelBackgroundColor=none;" parent="TtT6zjxbn2nU0OrpLk1x-122" vertex="1">
          <mxGeometry y="330" width="180" height="30" as="geometry" />
        </mxCell>
        <mxCell id="TtT6zjxbn2nU0OrpLk1x-178" value="" style="shape=partialRectangle;connectable=0;fillColor=none;top=0;left=0;bottom=0;right=0;editable=1;overflow=hidden;whiteSpace=wrap;html=1;strokeColor=#788AA3;fontFamily=Helvetica;fontSize=12;fontColor=#46495D;startSize=23;labelBackgroundColor=none;" parent="TtT6zjxbn2nU0OrpLk1x-177" vertex="1">
          <mxGeometry width="30" height="30" as="geometry">
            <mxRectangle width="30" height="30" as="alternateBounds" />
          </mxGeometry>
        </mxCell>
        <mxCell id="TtT6zjxbn2nU0OrpLk1x-179" value="updated_at" style="shape=partialRectangle;connectable=0;fillColor=none;top=0;left=0;bottom=0;right=0;align=left;spacingLeft=6;overflow=hidden;whiteSpace=wrap;html=1;strokeColor=#788AA3;fontFamily=Helvetica;fontSize=12;fontColor=#46495D;startSize=23;labelBackgroundColor=none;" parent="TtT6zjxbn2nU0OrpLk1x-177" vertex="1">
          <mxGeometry x="30" width="150" height="30" as="geometry">
            <mxRectangle width="150" height="30" as="alternateBounds" />
          </mxGeometry>
        </mxCell>
        <mxCell id="TtT6zjxbn2nU0OrpLk1x-147" value="" style="shape=tableRow;horizontal=0;startSize=0;swimlaneHead=0;swimlaneBody=0;fillColor=none;collapsible=0;dropTarget=0;points=[[0,0.5],[1,0.5]];portConstraint=eastwest;top=0;left=0;right=0;bottom=0;strokeColor=#788AA3;fontFamily=Helvetica;fontSize=12;fontColor=#46495D;html=1;labelBackgroundColor=none;" parent="WIyWlLk6GJQsqaUBKTNV-1" vertex="1">
          <mxGeometry x="70" y="610" width="180" height="30" as="geometry" />
        </mxCell>
        <mxCell id="TtT6zjxbn2nU0OrpLk1x-148" value="" style="shape=partialRectangle;connectable=0;fillColor=none;top=0;left=0;bottom=0;right=0;editable=1;overflow=hidden;whiteSpace=wrap;html=1;strokeColor=#788AA3;fontFamily=Helvetica;fontSize=12;fontColor=#46495D;startSize=23;labelBackgroundColor=none;" parent="TtT6zjxbn2nU0OrpLk1x-147" vertex="1">
          <mxGeometry width="30" height="30" as="geometry">
            <mxRectangle width="30" height="30" as="alternateBounds" />
          </mxGeometry>
        </mxCell>
        <mxCell id="TtT6zjxbn2nU0OrpLk1x-150" value="" style="shape=tableRow;horizontal=0;startSize=0;swimlaneHead=0;swimlaneBody=0;fillColor=none;collapsible=0;dropTarget=0;points=[[0,0.5],[1,0.5]];portConstraint=eastwest;top=0;left=0;right=0;bottom=0;strokeColor=#788AA3;fontFamily=Helvetica;fontSize=12;fontColor=#46495D;html=1;labelBackgroundColor=none;" parent="WIyWlLk6GJQsqaUBKTNV-1" vertex="1">
          <mxGeometry x="70" y="610" width="180" height="30" as="geometry" />
        </mxCell>
        <mxCell id="TtT6zjxbn2nU0OrpLk1x-151" value="" style="shape=partialRectangle;connectable=0;fillColor=none;top=0;left=0;bottom=0;right=0;editable=1;overflow=hidden;whiteSpace=wrap;html=1;strokeColor=#788AA3;fontFamily=Helvetica;fontSize=12;fontColor=#46495D;startSize=23;labelBackgroundColor=none;" parent="TtT6zjxbn2nU0OrpLk1x-150" vertex="1">
          <mxGeometry width="30" height="30" as="geometry">
            <mxRectangle width="30" height="30" as="alternateBounds" />
          </mxGeometry>
        </mxCell>
        <mxCell id="TtT6zjxbn2nU0OrpLk1x-454" value="" style="edgeStyle=elbowEdgeStyle;fontSize=12;html=1;endArrow=ERzeroToMany;endFill=1;fontFamily=Helvetica;fontColor=default;startSize=8;rounded=1;entryX=0;entryY=0.5;entryDx=0;entryDy=0;startArrow=ERone;startFill=0;endSize=9;labelBackgroundColor=none;strokeColor=#788AA3;exitX=1;exitY=0.5;exitDx=0;exitDy=0;" parent="WIyWlLk6GJQsqaUBKTNV-1" source="TtT6zjxbn2nU0OrpLk1x-126" edge="1">
          <mxGeometry width="100" height="100" relative="1" as="geometry">
            <mxPoint x="50" y="250" as="sourcePoint" />
            <mxPoint x="1474" y="485" as="targetPoint" />
          </mxGeometry>
        </mxCell>
        <mxCell id="TtT6zjxbn2nU0OrpLk1x-473" value="&lt;font color=&quot;#000000&quot;&gt;Posts（投稿）&lt;/font&gt;" style="shape=table;startSize=30;container=1;collapsible=1;childLayout=tableLayout;fixedRows=1;rowLines=0;fontStyle=1;align=center;resizeLast=1;html=1;strokeColor=#b85450;fontFamily=Helvetica;fontSize=12;fillColor=#f8cecc;labelBackgroundColor=none;" parent="WIyWlLk6GJQsqaUBKTNV-1" vertex="1">
          <mxGeometry x="130" y="420" width="180" height="210" as="geometry" />
        </mxCell>
        <mxCell id="TtT6zjxbn2nU0OrpLk1x-474" value="" style="shape=tableRow;horizontal=0;startSize=0;swimlaneHead=0;swimlaneBody=0;fillColor=none;collapsible=0;dropTarget=0;points=[[0,0.5],[1,0.5]];portConstraint=eastwest;top=0;left=0;right=0;bottom=1;strokeColor=#788AA3;fontFamily=Helvetica;fontSize=12;fontColor=#46495D;html=1;labelBackgroundColor=none;" parent="TtT6zjxbn2nU0OrpLk1x-473" vertex="1">
          <mxGeometry y="30" width="180" height="30" as="geometry" />
        </mxCell>
        <mxCell id="TtT6zjxbn2nU0OrpLk1x-475" value="PK" style="shape=partialRectangle;connectable=0;fillColor=none;top=0;left=0;bottom=0;right=0;fontStyle=1;overflow=hidden;whiteSpace=wrap;html=1;strokeColor=#788AA3;fontFamily=Helvetica;fontSize=12;fontColor=#46495D;startSize=23;labelBackgroundColor=none;" parent="TtT6zjxbn2nU0OrpLk1x-474" vertex="1">
          <mxGeometry width="30" height="30" as="geometry">
            <mxRectangle width="30" height="30" as="alternateBounds" />
          </mxGeometry>
        </mxCell>
        <mxCell id="TtT6zjxbn2nU0OrpLk1x-476" value="post_id" style="shape=partialRectangle;connectable=0;fillColor=none;top=0;left=0;bottom=0;right=0;align=left;spacingLeft=6;fontStyle=5;overflow=hidden;whiteSpace=wrap;html=1;strokeColor=#788AA3;fontFamily=Helvetica;fontSize=12;fontColor=#46495D;startSize=23;labelBackgroundColor=none;" parent="TtT6zjxbn2nU0OrpLk1x-474" vertex="1">
          <mxGeometry x="30" width="150" height="30" as="geometry">
            <mxRectangle width="150" height="30" as="alternateBounds" />
          </mxGeometry>
        </mxCell>
        <mxCell id="TtT6zjxbn2nU0OrpLk1x-480" value="" style="shape=tableRow;horizontal=0;startSize=0;swimlaneHead=0;swimlaneBody=0;fillColor=none;collapsible=0;dropTarget=0;points=[[0,0.5],[1,0.5]];portConstraint=eastwest;top=0;left=0;right=0;bottom=1;strokeColor=#788AA3;fontFamily=Helvetica;fontSize=12;fontColor=#46495D;html=1;labelBackgroundColor=none;" parent="TtT6zjxbn2nU0OrpLk1x-473" vertex="1">
          <mxGeometry y="60" width="180" height="30" as="geometry" />
        </mxCell>
        <mxCell id="TtT6zjxbn2nU0OrpLk1x-481" value="FK" style="shape=partialRectangle;connectable=0;fillColor=none;top=0;left=0;bottom=0;right=0;fontStyle=1;overflow=hidden;whiteSpace=wrap;html=1;strokeColor=#788AA3;fontFamily=Helvetica;fontSize=12;fontColor=#46495D;startSize=23;labelBackgroundColor=none;" parent="TtT6zjxbn2nU0OrpLk1x-480" vertex="1">
          <mxGeometry width="30" height="30" as="geometry">
            <mxRectangle width="30" height="30" as="alternateBounds" />
          </mxGeometry>
        </mxCell>
        <mxCell id="TtT6zjxbn2nU0OrpLk1x-482" value="user_id" style="shape=partialRectangle;connectable=0;fillColor=none;top=0;left=0;bottom=0;right=0;align=left;spacingLeft=6;fontStyle=5;overflow=hidden;whiteSpace=wrap;html=1;strokeColor=#788AA3;fontFamily=Helvetica;fontSize=12;fontColor=#46495D;startSize=23;labelBackgroundColor=none;" parent="TtT6zjxbn2nU0OrpLk1x-480" vertex="1">
          <mxGeometry x="30" width="150" height="30" as="geometry">
            <mxRectangle width="150" height="30" as="alternateBounds" />
          </mxGeometry>
        </mxCell>
        <mxCell id="TtT6zjxbn2nU0OrpLk1x-483" value="" style="shape=tableRow;horizontal=0;startSize=0;swimlaneHead=0;swimlaneBody=0;fillColor=none;collapsible=0;dropTarget=0;points=[[0,0.5],[1,0.5]];portConstraint=eastwest;top=0;left=0;right=0;bottom=0;strokeColor=#788AA3;fontFamily=Helvetica;fontSize=12;fontColor=#46495D;html=1;labelBackgroundColor=none;" parent="TtT6zjxbn2nU0OrpLk1x-473" vertex="1">
          <mxGeometry y="90" width="180" height="30" as="geometry" />
        </mxCell>
        <mxCell id="TtT6zjxbn2nU0OrpLk1x-484" value="" style="shape=partialRectangle;connectable=0;fillColor=none;top=0;left=0;bottom=0;right=0;editable=1;overflow=hidden;whiteSpace=wrap;html=1;strokeColor=#788AA3;fontFamily=Helvetica;fontSize=12;fontColor=#46495D;startSize=23;labelBackgroundColor=none;" parent="TtT6zjxbn2nU0OrpLk1x-483" vertex="1">
          <mxGeometry width="30" height="30" as="geometry">
            <mxRectangle width="30" height="30" as="alternateBounds" />
          </mxGeometry>
        </mxCell>
        <mxCell id="TtT6zjxbn2nU0OrpLk1x-485" value="title" style="shape=partialRectangle;connectable=0;fillColor=none;top=0;left=0;bottom=0;right=0;align=left;spacingLeft=6;overflow=hidden;whiteSpace=wrap;html=1;strokeColor=#788AA3;fontFamily=Helvetica;fontSize=12;fontColor=#46495D;startSize=23;labelBackgroundColor=none;" parent="TtT6zjxbn2nU0OrpLk1x-483" vertex="1">
          <mxGeometry x="30" width="150" height="30" as="geometry">
            <mxRectangle width="150" height="30" as="alternateBounds" />
          </mxGeometry>
        </mxCell>
        <mxCell id="amjBT3HOfIgmp5ZAhak1-0" value="" style="shape=tableRow;horizontal=0;startSize=0;swimlaneHead=0;swimlaneBody=0;fillColor=none;collapsible=0;dropTarget=0;points=[[0,0.5],[1,0.5]];portConstraint=eastwest;top=0;left=0;right=0;bottom=0;strokeColor=#788AA3;fontFamily=Helvetica;fontSize=12;fontColor=#46495D;html=1;labelBackgroundColor=none;" vertex="1" parent="TtT6zjxbn2nU0OrpLk1x-473">
          <mxGeometry y="120" width="180" height="30" as="geometry" />
        </mxCell>
        <mxCell id="amjBT3HOfIgmp5ZAhak1-1" value="" style="shape=partialRectangle;connectable=0;fillColor=none;top=0;left=0;bottom=0;right=0;editable=1;overflow=hidden;whiteSpace=wrap;html=1;strokeColor=#788AA3;fontFamily=Helvetica;fontSize=12;fontColor=#46495D;startSize=23;labelBackgroundColor=none;" vertex="1" parent="amjBT3HOfIgmp5ZAhak1-0">
          <mxGeometry width="30" height="30" as="geometry">
            <mxRectangle width="30" height="30" as="alternateBounds" />
          </mxGeometry>
        </mxCell>
        <mxCell id="amjBT3HOfIgmp5ZAhak1-2" value="content（文章）" style="shape=partialRectangle;connectable=0;fillColor=none;top=0;left=0;bottom=0;right=0;align=left;spacingLeft=6;overflow=hidden;whiteSpace=wrap;html=1;strokeColor=#788AA3;fontFamily=Helvetica;fontSize=12;fontColor=#46495D;startSize=23;labelBackgroundColor=none;" vertex="1" parent="amjBT3HOfIgmp5ZAhak1-0">
          <mxGeometry x="30" width="150" height="30" as="geometry">
            <mxRectangle width="150" height="30" as="alternateBounds" />
          </mxGeometry>
        </mxCell>
        <mxCell id="TtT6zjxbn2nU0OrpLk1x-495" value="" style="shape=tableRow;horizontal=0;startSize=0;swimlaneHead=0;swimlaneBody=0;fillColor=none;collapsible=0;dropTarget=0;points=[[0,0.5],[1,0.5]];portConstraint=eastwest;top=0;left=0;right=0;bottom=0;strokeColor=#788AA3;fontFamily=Helvetica;fontSize=12;fontColor=#46495D;html=1;labelBackgroundColor=none;" parent="TtT6zjxbn2nU0OrpLk1x-473" vertex="1">
          <mxGeometry y="150" width="180" height="30" as="geometry" />
        </mxCell>
        <mxCell id="TtT6zjxbn2nU0OrpLk1x-496" value="" style="shape=partialRectangle;connectable=0;fillColor=none;top=0;left=0;bottom=0;right=0;editable=1;overflow=hidden;whiteSpace=wrap;html=1;strokeColor=#788AA3;fontFamily=Helvetica;fontSize=12;fontColor=#46495D;startSize=23;labelBackgroundColor=none;" parent="TtT6zjxbn2nU0OrpLk1x-495" vertex="1">
          <mxGeometry width="30" height="30" as="geometry">
            <mxRectangle width="30" height="30" as="alternateBounds" />
          </mxGeometry>
        </mxCell>
        <mxCell id="TtT6zjxbn2nU0OrpLk1x-497" value="created_at" style="shape=partialRectangle;connectable=0;fillColor=none;top=0;left=0;bottom=0;right=0;align=left;spacingLeft=6;overflow=hidden;whiteSpace=wrap;html=1;strokeColor=#788AA3;fontFamily=Helvetica;fontSize=12;fontColor=#46495D;startSize=23;labelBackgroundColor=none;" parent="TtT6zjxbn2nU0OrpLk1x-495" vertex="1">
          <mxGeometry x="30" width="150" height="30" as="geometry">
            <mxRectangle width="150" height="30" as="alternateBounds" />
          </mxGeometry>
        </mxCell>
        <mxCell id="TtT6zjxbn2nU0OrpLk1x-498" value="" style="shape=tableRow;horizontal=0;startSize=0;swimlaneHead=0;swimlaneBody=0;fillColor=none;collapsible=0;dropTarget=0;points=[[0,0.5],[1,0.5]];portConstraint=eastwest;top=0;left=0;right=0;bottom=0;strokeColor=#788AA3;fontFamily=Helvetica;fontSize=12;fontColor=#46495D;html=1;labelBackgroundColor=none;" parent="TtT6zjxbn2nU0OrpLk1x-473" vertex="1">
          <mxGeometry y="180" width="180" height="30" as="geometry" />
        </mxCell>
        <mxCell id="TtT6zjxbn2nU0OrpLk1x-499" value="" style="shape=partialRectangle;connectable=0;fillColor=none;top=0;left=0;bottom=0;right=0;editable=1;overflow=hidden;whiteSpace=wrap;html=1;strokeColor=#788AA3;fontFamily=Helvetica;fontSize=12;fontColor=#46495D;startSize=23;labelBackgroundColor=none;" parent="TtT6zjxbn2nU0OrpLk1x-498" vertex="1">
          <mxGeometry width="30" height="30" as="geometry">
            <mxRectangle width="30" height="30" as="alternateBounds" />
          </mxGeometry>
        </mxCell>
        <mxCell id="TtT6zjxbn2nU0OrpLk1x-500" value="updated_at" style="shape=partialRectangle;connectable=0;fillColor=none;top=0;left=0;bottom=0;right=0;align=left;spacingLeft=6;overflow=hidden;whiteSpace=wrap;html=1;strokeColor=#788AA3;fontFamily=Helvetica;fontSize=12;fontColor=#46495D;startSize=23;labelBackgroundColor=none;" parent="TtT6zjxbn2nU0OrpLk1x-498" vertex="1">
          <mxGeometry x="30" width="150" height="30" as="geometry">
            <mxRectangle width="150" height="30" as="alternateBounds" />
          </mxGeometry>
        </mxCell>
        <mxCell id="TtT6zjxbn2nU0OrpLk1x-521" value="" style="edgeStyle=elbowEdgeStyle;fontSize=12;html=1;endArrow=ERzeroToMany;endFill=1;fontFamily=Helvetica;fontColor=default;startSize=8;entryX=1;entryY=0.5;entryDx=0;entryDy=0;rounded=1;startArrow=ERone;startFill=0;endSize=9;labelBackgroundColor=none;strokeColor=#788AA3;exitX=0;exitY=0.5;exitDx=0;exitDy=0;" parent="WIyWlLk6GJQsqaUBKTNV-1" source="AqgVQKVdH_DSCZpF_KZi-0" target="TtT6zjxbn2nU0OrpLk1x-474" edge="1">
          <mxGeometry width="100" height="100" relative="1" as="geometry">
            <mxPoint x="790" y="560" as="sourcePoint" />
            <mxPoint x="424" y="220" as="targetPoint" />
          </mxGeometry>
        </mxCell>
        <mxCell id="AqgVQKVdH_DSCZpF_KZi-50" value="" style="edgeStyle=elbowEdgeStyle;fontSize=12;html=1;endArrow=ERzeroToMany;endFill=1;fontFamily=Helvetica;fontColor=default;startSize=8;exitX=1;exitY=0.5;exitDx=0;exitDy=0;rounded=1;startArrow=ERone;startFill=0;endSize=9;labelBackgroundColor=none;strokeColor=#788AA3;entryX=-0.001;entryY=0.049;entryDx=0;entryDy=0;entryPerimeter=0;" parent="WIyWlLk6GJQsqaUBKTNV-1" source="TtT6zjxbn2nU0OrpLk1x-123" edge="1">
          <mxGeometry width="100" height="100" relative="1" as="geometry">
            <mxPoint x="270" y="360" as="sourcePoint" />
            <mxPoint x="1159.7800000000002" y="341.47" as="targetPoint" />
          </mxGeometry>
        </mxCell>
        <mxCell id="AqgVQKVdH_DSCZpF_KZi-58" value="" style="shape=tableRow;horizontal=0;startSize=0;swimlaneHead=0;swimlaneBody=0;fillColor=none;collapsible=0;dropTarget=0;points=[[0,0.5],[1,0.5]];portConstraint=eastwest;top=0;left=0;right=0;bottom=0;strokeColor=#788AA3;fontFamily=Helvetica;fontSize=12;fontColor=#46495D;html=1;labelBackgroundColor=none;" parent="WIyWlLk6GJQsqaUBKTNV-1" vertex="1">
          <mxGeometry x="620" y="790" width="180" height="30" as="geometry" />
        </mxCell>
        <mxCell id="AqgVQKVdH_DSCZpF_KZi-59" value="" style="shape=partialRectangle;connectable=0;fillColor=none;top=0;left=0;bottom=0;right=0;editable=1;overflow=hidden;whiteSpace=wrap;html=1;strokeColor=#788AA3;fontFamily=Helvetica;fontSize=12;fontColor=#46495D;startSize=23;labelBackgroundColor=none;" parent="AqgVQKVdH_DSCZpF_KZi-58" vertex="1">
          <mxGeometry width="30" height="30" as="geometry">
            <mxRectangle width="30" height="30" as="alternateBounds" />
          </mxGeometry>
        </mxCell>
        <mxCell id="AqgVQKVdH_DSCZpF_KZi-132" value="" style="edgeStyle=elbowEdgeStyle;fontSize=12;html=1;endArrow=ERzeroToMany;endFill=1;fontFamily=Helvetica;fontColor=default;startSize=8;rounded=1;startArrow=ERone;startFill=0;endSize=9;labelBackgroundColor=none;strokeColor=#788AA3;entryX=0;entryY=0.5;entryDx=0;entryDy=0;" parent="WIyWlLk6GJQsqaUBKTNV-1" source="ygLPfD_EKUeMDjVUtWBq-19" edge="1">
          <mxGeometry width="100" height="100" relative="1" as="geometry">
            <mxPoint x="930" y="930" as="sourcePoint" />
            <mxPoint x="1340" y="965" as="targetPoint" />
            <Array as="points">
              <mxPoint x="1190" y="840" />
            </Array>
          </mxGeometry>
        </mxCell>
        <mxCell id="AqgVQKVdH_DSCZpF_KZi-133" value="" style="edgeStyle=elbowEdgeStyle;fontSize=12;html=1;endArrow=ERzeroToMany;endFill=1;fontFamily=Helvetica;fontColor=default;startSize=8;rounded=1;startArrow=ERone;startFill=0;endSize=9;labelBackgroundColor=none;strokeColor=#788AA3;exitX=1;exitY=0.5;exitDx=0;exitDy=0;" parent="WIyWlLk6GJQsqaUBKTNV-1" source="AqgVQKVdH_DSCZpF_KZi-0" edge="1">
          <mxGeometry width="100" height="100" relative="1" as="geometry">
            <mxPoint x="1050" y="680" as="sourcePoint" />
            <mxPoint x="1560.0000000000005" y="770" as="targetPoint" />
            <Array as="points">
              <mxPoint x="1330" y="770" />
            </Array>
          </mxGeometry>
        </mxCell>
        <mxCell id="AqgVQKVdH_DSCZpF_KZi-141" value="Favorites（いいね）" style="shape=table;startSize=30;container=1;collapsible=1;childLayout=tableLayout;fixedRows=1;rowLines=0;fontStyle=1;align=center;resizeLast=1;html=1;strokeColor=#b85450;fontFamily=Helvetica;fontSize=12;fillColor=#f8cecc;labelBackgroundColor=none;" parent="WIyWlLk6GJQsqaUBKTNV-1" vertex="1">
          <mxGeometry x="480" y="260" width="180" height="180" as="geometry" />
        </mxCell>
        <mxCell id="AqgVQKVdH_DSCZpF_KZi-142" value="" style="shape=tableRow;horizontal=0;startSize=0;swimlaneHead=0;swimlaneBody=0;fillColor=none;collapsible=0;dropTarget=0;points=[[0,0.5],[1,0.5]];portConstraint=eastwest;top=0;left=0;right=0;bottom=1;strokeColor=#788AA3;fontFamily=Helvetica;fontSize=12;fontColor=#46495D;html=1;labelBackgroundColor=none;" parent="AqgVQKVdH_DSCZpF_KZi-141" vertex="1">
          <mxGeometry y="30" width="180" height="30" as="geometry" />
        </mxCell>
        <mxCell id="AqgVQKVdH_DSCZpF_KZi-143" value="PK" style="shape=partialRectangle;connectable=0;fillColor=none;top=0;left=0;bottom=0;right=0;fontStyle=1;overflow=hidden;whiteSpace=wrap;html=1;strokeColor=#788AA3;fontFamily=Helvetica;fontSize=12;fontColor=#46495D;startSize=23;labelBackgroundColor=none;" parent="AqgVQKVdH_DSCZpF_KZi-142" vertex="1">
          <mxGeometry width="30" height="30" as="geometry">
            <mxRectangle width="30" height="30" as="alternateBounds" />
          </mxGeometry>
        </mxCell>
        <mxCell id="AqgVQKVdH_DSCZpF_KZi-144" value="favorite_id" style="shape=partialRectangle;connectable=0;fillColor=none;top=0;left=0;bottom=0;right=0;align=left;spacingLeft=6;fontStyle=5;overflow=hidden;whiteSpace=wrap;html=1;strokeColor=#788AA3;fontFamily=Helvetica;fontSize=12;fontColor=#46495D;startSize=23;labelBackgroundColor=none;" parent="AqgVQKVdH_DSCZpF_KZi-142" vertex="1">
          <mxGeometry x="30" width="150" height="30" as="geometry">
            <mxRectangle width="150" height="30" as="alternateBounds" />
          </mxGeometry>
        </mxCell>
        <mxCell id="AqgVQKVdH_DSCZpF_KZi-145" value="" style="shape=tableRow;horizontal=0;startSize=0;swimlaneHead=0;swimlaneBody=0;fillColor=none;collapsible=0;dropTarget=0;points=[[0,0.5],[1,0.5]];portConstraint=eastwest;top=0;left=0;right=0;bottom=0;strokeColor=#788AA3;fontFamily=Helvetica;fontSize=12;fontColor=#46495D;html=1;labelBackgroundColor=none;" parent="AqgVQKVdH_DSCZpF_KZi-141" vertex="1">
          <mxGeometry y="60" width="180" height="30" as="geometry" />
        </mxCell>
        <mxCell id="AqgVQKVdH_DSCZpF_KZi-146" value="&lt;b&gt;FK&lt;/b&gt;" style="shape=partialRectangle;connectable=0;fillColor=none;top=0;left=0;bottom=0;right=0;editable=1;overflow=hidden;whiteSpace=wrap;html=1;strokeColor=#788AA3;fontFamily=Helvetica;fontSize=12;fontColor=#46495D;startSize=23;labelBackgroundColor=none;" parent="AqgVQKVdH_DSCZpF_KZi-145" vertex="1">
          <mxGeometry width="30" height="30" as="geometry">
            <mxRectangle width="30" height="30" as="alternateBounds" />
          </mxGeometry>
        </mxCell>
        <mxCell id="AqgVQKVdH_DSCZpF_KZi-147" value="&lt;u&gt;&lt;b&gt;user_id&lt;/b&gt;&lt;/u&gt;" style="shape=partialRectangle;connectable=0;fillColor=none;top=0;left=0;bottom=0;right=0;align=left;spacingLeft=6;overflow=hidden;whiteSpace=wrap;html=1;strokeColor=#788AA3;fontFamily=Helvetica;fontSize=12;fontColor=#46495D;startSize=23;labelBackgroundColor=none;" parent="AqgVQKVdH_DSCZpF_KZi-145" vertex="1">
          <mxGeometry x="30" width="150" height="30" as="geometry">
            <mxRectangle width="150" height="30" as="alternateBounds" />
          </mxGeometry>
        </mxCell>
        <mxCell id="AqgVQKVdH_DSCZpF_KZi-148" value="" style="shape=tableRow;horizontal=0;startSize=0;swimlaneHead=0;swimlaneBody=0;fillColor=none;collapsible=0;dropTarget=0;points=[[0,0.5],[1,0.5]];portConstraint=eastwest;top=0;left=0;right=0;bottom=1;strokeColor=#788AA3;fontFamily=Helvetica;fontSize=12;fontColor=#46495D;html=1;labelBackgroundColor=none;" parent="AqgVQKVdH_DSCZpF_KZi-141" vertex="1">
          <mxGeometry y="90" width="180" height="30" as="geometry" />
        </mxCell>
        <mxCell id="AqgVQKVdH_DSCZpF_KZi-149" value="FK" style="shape=partialRectangle;connectable=0;fillColor=none;top=0;left=0;bottom=0;right=0;fontStyle=1;overflow=hidden;whiteSpace=wrap;html=1;strokeColor=#788AA3;fontFamily=Helvetica;fontSize=12;fontColor=#46495D;startSize=23;labelBackgroundColor=none;" parent="AqgVQKVdH_DSCZpF_KZi-148" vertex="1">
          <mxGeometry width="30" height="30" as="geometry">
            <mxRectangle width="30" height="30" as="alternateBounds" />
          </mxGeometry>
        </mxCell>
        <mxCell id="AqgVQKVdH_DSCZpF_KZi-150" value="post_id" style="shape=partialRectangle;connectable=0;fillColor=none;top=0;left=0;bottom=0;right=0;align=left;spacingLeft=6;fontStyle=5;overflow=hidden;whiteSpace=wrap;html=1;strokeColor=#788AA3;fontFamily=Helvetica;fontSize=12;fontColor=#46495D;startSize=23;labelBackgroundColor=none;" parent="AqgVQKVdH_DSCZpF_KZi-148" vertex="1">
          <mxGeometry x="30" width="150" height="30" as="geometry">
            <mxRectangle width="150" height="30" as="alternateBounds" />
          </mxGeometry>
        </mxCell>
        <mxCell id="AqgVQKVdH_DSCZpF_KZi-151" value="" style="shape=tableRow;horizontal=0;startSize=0;swimlaneHead=0;swimlaneBody=0;fillColor=none;collapsible=0;dropTarget=0;points=[[0,0.5],[1,0.5]];portConstraint=eastwest;top=0;left=0;right=0;bottom=0;strokeColor=#788AA3;fontFamily=Helvetica;fontSize=12;fontColor=#46495D;html=1;labelBackgroundColor=none;" parent="AqgVQKVdH_DSCZpF_KZi-141" vertex="1">
          <mxGeometry y="120" width="180" height="30" as="geometry" />
        </mxCell>
        <mxCell id="AqgVQKVdH_DSCZpF_KZi-152" value="" style="shape=partialRectangle;connectable=0;fillColor=none;top=0;left=0;bottom=0;right=0;editable=1;overflow=hidden;whiteSpace=wrap;html=1;strokeColor=#788AA3;fontFamily=Helvetica;fontSize=12;fontColor=#46495D;startSize=23;labelBackgroundColor=none;" parent="AqgVQKVdH_DSCZpF_KZi-151" vertex="1">
          <mxGeometry width="30" height="30" as="geometry">
            <mxRectangle width="30" height="30" as="alternateBounds" />
          </mxGeometry>
        </mxCell>
        <mxCell id="AqgVQKVdH_DSCZpF_KZi-153" value="created_at" style="shape=partialRectangle;connectable=0;fillColor=none;top=0;left=0;bottom=0;right=0;align=left;spacingLeft=6;overflow=hidden;whiteSpace=wrap;html=1;strokeColor=#788AA3;fontFamily=Helvetica;fontSize=12;fontColor=#46495D;startSize=23;labelBackgroundColor=none;" parent="AqgVQKVdH_DSCZpF_KZi-151" vertex="1">
          <mxGeometry x="30" width="150" height="30" as="geometry">
            <mxRectangle width="150" height="30" as="alternateBounds" />
          </mxGeometry>
        </mxCell>
        <mxCell id="AqgVQKVdH_DSCZpF_KZi-154" value="" style="shape=tableRow;horizontal=0;startSize=0;swimlaneHead=0;swimlaneBody=0;fillColor=none;collapsible=0;dropTarget=0;points=[[0,0.5],[1,0.5]];portConstraint=eastwest;top=0;left=0;right=0;bottom=0;strokeColor=#788AA3;fontFamily=Helvetica;fontSize=12;fontColor=#46495D;html=1;labelBackgroundColor=none;" parent="AqgVQKVdH_DSCZpF_KZi-141" vertex="1">
          <mxGeometry y="150" width="180" height="30" as="geometry" />
        </mxCell>
        <mxCell id="AqgVQKVdH_DSCZpF_KZi-155" value="" style="shape=partialRectangle;connectable=0;fillColor=none;top=0;left=0;bottom=0;right=0;editable=1;overflow=hidden;whiteSpace=wrap;html=1;strokeColor=#788AA3;fontFamily=Helvetica;fontSize=12;fontColor=#46495D;startSize=23;labelBackgroundColor=none;" parent="AqgVQKVdH_DSCZpF_KZi-154" vertex="1">
          <mxGeometry width="30" height="30" as="geometry">
            <mxRectangle width="30" height="30" as="alternateBounds" />
          </mxGeometry>
        </mxCell>
        <mxCell id="AqgVQKVdH_DSCZpF_KZi-156" value="updated_at" style="shape=partialRectangle;connectable=0;fillColor=none;top=0;left=0;bottom=0;right=0;align=left;spacingLeft=6;overflow=hidden;whiteSpace=wrap;html=1;strokeColor=#788AA3;fontFamily=Helvetica;fontSize=12;fontColor=#46495D;startSize=23;labelBackgroundColor=none;" parent="AqgVQKVdH_DSCZpF_KZi-154" vertex="1">
          <mxGeometry x="30" width="150" height="30" as="geometry">
            <mxRectangle width="150" height="30" as="alternateBounds" />
          </mxGeometry>
        </mxCell>
        <mxCell id="AqgVQKVdH_DSCZpF_KZi-158" value="" style="edgeStyle=elbowEdgeStyle;fontSize=12;html=1;endArrow=ERzeroToMany;endFill=1;fontFamily=Helvetica;fontColor=default;startSize=8;rounded=1;entryX=1;entryY=0.5;entryDx=0;entryDy=0;startArrow=ERone;startFill=0;endSize=9;labelBackgroundColor=none;strokeColor=#788AA3;" parent="WIyWlLk6GJQsqaUBKTNV-1" source="ygLPfD_EKUeMDjVUtWBq-19" target="AqgVQKVdH_DSCZpF_KZi-168" edge="1">
          <mxGeometry width="100" height="100" relative="1" as="geometry">
            <mxPoint x="790" y="565" as="sourcePoint" />
            <mxPoint x="690" y="1190" as="targetPoint" />
            <Array as="points">
              <mxPoint x="630" y="610" />
            </Array>
          </mxGeometry>
        </mxCell>
        <mxCell id="AqgVQKVdH_DSCZpF_KZi-160" value="" style="edgeStyle=elbowEdgeStyle;fontSize=12;html=1;endArrow=ERzeroToMany;endFill=1;fontFamily=Helvetica;fontColor=default;startSize=8;rounded=1;startArrow=ERone;startFill=0;endSize=9;labelBackgroundColor=none;strokeColor=#788AA3;exitX=0.5;exitY=0;exitDx=0;exitDy=0;entryX=0;entryY=0.5;entryDx=0;entryDy=0;" parent="WIyWlLk6GJQsqaUBKTNV-1" source="TtT6zjxbn2nU0OrpLk1x-473" target="AqgVQKVdH_DSCZpF_KZi-148" edge="1">
          <mxGeometry width="100" height="100" relative="1" as="geometry">
            <mxPoint x="230" y="260" as="sourcePoint" />
            <mxPoint x="500" y="275" as="targetPoint" />
            <Array as="points">
              <mxPoint x="220" y="380" />
            </Array>
          </mxGeometry>
        </mxCell>
        <mxCell id="AqgVQKVdH_DSCZpF_KZi-161" value="Comments（コメント）" style="shape=table;startSize=30;container=1;collapsible=1;childLayout=tableLayout;fixedRows=1;rowLines=0;fontStyle=1;align=center;resizeLast=1;html=1;strokeColor=#b85450;fontFamily=Helvetica;fontSize=12;fillColor=#f8cecc;labelBackgroundColor=none;" parent="WIyWlLk6GJQsqaUBKTNV-1" vertex="1">
          <mxGeometry x="390" y="650" width="180" height="210" as="geometry" />
        </mxCell>
        <mxCell id="AqgVQKVdH_DSCZpF_KZi-162" value="" style="shape=tableRow;horizontal=0;startSize=0;swimlaneHead=0;swimlaneBody=0;fillColor=none;collapsible=0;dropTarget=0;points=[[0,0.5],[1,0.5]];portConstraint=eastwest;top=0;left=0;right=0;bottom=1;strokeColor=#788AA3;fontFamily=Helvetica;fontSize=12;fontColor=#46495D;html=1;labelBackgroundColor=none;" parent="AqgVQKVdH_DSCZpF_KZi-161" vertex="1">
          <mxGeometry y="30" width="180" height="30" as="geometry" />
        </mxCell>
        <mxCell id="AqgVQKVdH_DSCZpF_KZi-163" value="PK" style="shape=partialRectangle;connectable=0;fillColor=none;top=0;left=0;bottom=0;right=0;fontStyle=1;overflow=hidden;whiteSpace=wrap;html=1;strokeColor=#788AA3;fontFamily=Helvetica;fontSize=12;fontColor=#46495D;startSize=23;labelBackgroundColor=none;" parent="AqgVQKVdH_DSCZpF_KZi-162" vertex="1">
          <mxGeometry width="30" height="30" as="geometry">
            <mxRectangle width="30" height="30" as="alternateBounds" />
          </mxGeometry>
        </mxCell>
        <mxCell id="AqgVQKVdH_DSCZpF_KZi-164" value="comment_id" style="shape=partialRectangle;connectable=0;fillColor=none;top=0;left=0;bottom=0;right=0;align=left;spacingLeft=6;fontStyle=5;overflow=hidden;whiteSpace=wrap;html=1;strokeColor=#788AA3;fontFamily=Helvetica;fontSize=12;fontColor=#46495D;startSize=23;labelBackgroundColor=none;" parent="AqgVQKVdH_DSCZpF_KZi-162" vertex="1">
          <mxGeometry x="30" width="150" height="30" as="geometry">
            <mxRectangle width="150" height="30" as="alternateBounds" />
          </mxGeometry>
        </mxCell>
        <mxCell id="AqgVQKVdH_DSCZpF_KZi-165" value="" style="shape=tableRow;horizontal=0;startSize=0;swimlaneHead=0;swimlaneBody=0;fillColor=none;collapsible=0;dropTarget=0;points=[[0,0.5],[1,0.5]];portConstraint=eastwest;top=0;left=0;right=0;bottom=0;strokeColor=#788AA3;fontFamily=Helvetica;fontSize=12;fontColor=#46495D;html=1;labelBackgroundColor=none;" parent="AqgVQKVdH_DSCZpF_KZi-161" vertex="1">
          <mxGeometry y="60" width="180" height="30" as="geometry" />
        </mxCell>
        <mxCell id="AqgVQKVdH_DSCZpF_KZi-166" value="&lt;b&gt;FK&lt;/b&gt;" style="shape=partialRectangle;connectable=0;fillColor=none;top=0;left=0;bottom=0;right=0;editable=1;overflow=hidden;whiteSpace=wrap;html=1;strokeColor=#788AA3;fontFamily=Helvetica;fontSize=12;fontColor=#46495D;startSize=23;labelBackgroundColor=none;" parent="AqgVQKVdH_DSCZpF_KZi-165" vertex="1">
          <mxGeometry width="30" height="30" as="geometry">
            <mxRectangle width="30" height="30" as="alternateBounds" />
          </mxGeometry>
        </mxCell>
        <mxCell id="AqgVQKVdH_DSCZpF_KZi-167" value="&lt;u&gt;&lt;b&gt;user_id&lt;/b&gt;&lt;/u&gt;" style="shape=partialRectangle;connectable=0;fillColor=none;top=0;left=0;bottom=0;right=0;align=left;spacingLeft=6;overflow=hidden;whiteSpace=wrap;html=1;strokeColor=#788AA3;fontFamily=Helvetica;fontSize=12;fontColor=#46495D;startSize=23;labelBackgroundColor=none;" parent="AqgVQKVdH_DSCZpF_KZi-165" vertex="1">
          <mxGeometry x="30" width="150" height="30" as="geometry">
            <mxRectangle width="150" height="30" as="alternateBounds" />
          </mxGeometry>
        </mxCell>
        <mxCell id="AqgVQKVdH_DSCZpF_KZi-168" value="" style="shape=tableRow;horizontal=0;startSize=0;swimlaneHead=0;swimlaneBody=0;fillColor=none;collapsible=0;dropTarget=0;points=[[0,0.5],[1,0.5]];portConstraint=eastwest;top=0;left=0;right=0;bottom=1;strokeColor=#788AA3;fontFamily=Helvetica;fontSize=12;fontColor=#46495D;html=1;labelBackgroundColor=none;" parent="AqgVQKVdH_DSCZpF_KZi-161" vertex="1">
          <mxGeometry y="90" width="180" height="30" as="geometry" />
        </mxCell>
        <mxCell id="AqgVQKVdH_DSCZpF_KZi-169" value="FK" style="shape=partialRectangle;connectable=0;fillColor=none;top=0;left=0;bottom=0;right=0;fontStyle=1;overflow=hidden;whiteSpace=wrap;html=1;strokeColor=#788AA3;fontFamily=Helvetica;fontSize=12;fontColor=#46495D;startSize=23;labelBackgroundColor=none;" parent="AqgVQKVdH_DSCZpF_KZi-168" vertex="1">
          <mxGeometry width="30" height="30" as="geometry">
            <mxRectangle width="30" height="30" as="alternateBounds" />
          </mxGeometry>
        </mxCell>
        <mxCell id="AqgVQKVdH_DSCZpF_KZi-170" value="post_id" style="shape=partialRectangle;connectable=0;fillColor=none;top=0;left=0;bottom=0;right=0;align=left;spacingLeft=6;fontStyle=5;overflow=hidden;whiteSpace=wrap;html=1;strokeColor=#788AA3;fontFamily=Helvetica;fontSize=12;fontColor=#46495D;startSize=23;labelBackgroundColor=none;" parent="AqgVQKVdH_DSCZpF_KZi-168" vertex="1">
          <mxGeometry x="30" width="150" height="30" as="geometry">
            <mxRectangle width="150" height="30" as="alternateBounds" />
          </mxGeometry>
        </mxCell>
        <mxCell id="AqgVQKVdH_DSCZpF_KZi-177" value="" style="shape=tableRow;horizontal=0;startSize=0;swimlaneHead=0;swimlaneBody=0;fillColor=none;collapsible=0;dropTarget=0;points=[[0,0.5],[1,0.5]];portConstraint=eastwest;top=0;left=0;right=0;bottom=0;strokeColor=#788AA3;fontFamily=Helvetica;fontSize=12;fontColor=#46495D;html=1;labelBackgroundColor=none;" parent="AqgVQKVdH_DSCZpF_KZi-161" vertex="1">
          <mxGeometry y="120" width="180" height="30" as="geometry" />
        </mxCell>
        <mxCell id="AqgVQKVdH_DSCZpF_KZi-178" value="" style="shape=partialRectangle;connectable=0;fillColor=none;top=0;left=0;bottom=0;right=0;editable=1;overflow=hidden;whiteSpace=wrap;html=1;strokeColor=#788AA3;fontFamily=Helvetica;fontSize=12;fontColor=#46495D;startSize=23;labelBackgroundColor=none;" parent="AqgVQKVdH_DSCZpF_KZi-177" vertex="1">
          <mxGeometry width="30" height="30" as="geometry">
            <mxRectangle width="30" height="30" as="alternateBounds" />
          </mxGeometry>
        </mxCell>
        <mxCell id="AqgVQKVdH_DSCZpF_KZi-179" value="comment" style="shape=partialRectangle;connectable=0;fillColor=none;top=0;left=0;bottom=0;right=0;align=left;spacingLeft=6;overflow=hidden;whiteSpace=wrap;html=1;strokeColor=#788AA3;fontFamily=Helvetica;fontSize=12;fontColor=#46495D;startSize=23;labelBackgroundColor=none;" parent="AqgVQKVdH_DSCZpF_KZi-177" vertex="1">
          <mxGeometry x="30" width="150" height="30" as="geometry">
            <mxRectangle width="150" height="30" as="alternateBounds" />
          </mxGeometry>
        </mxCell>
        <mxCell id="AqgVQKVdH_DSCZpF_KZi-171" value="" style="shape=tableRow;horizontal=0;startSize=0;swimlaneHead=0;swimlaneBody=0;fillColor=none;collapsible=0;dropTarget=0;points=[[0,0.5],[1,0.5]];portConstraint=eastwest;top=0;left=0;right=0;bottom=0;strokeColor=#788AA3;fontFamily=Helvetica;fontSize=12;fontColor=#46495D;html=1;labelBackgroundColor=none;" parent="AqgVQKVdH_DSCZpF_KZi-161" vertex="1">
          <mxGeometry y="150" width="180" height="30" as="geometry" />
        </mxCell>
        <mxCell id="AqgVQKVdH_DSCZpF_KZi-172" value="" style="shape=partialRectangle;connectable=0;fillColor=none;top=0;left=0;bottom=0;right=0;editable=1;overflow=hidden;whiteSpace=wrap;html=1;strokeColor=#788AA3;fontFamily=Helvetica;fontSize=12;fontColor=#46495D;startSize=23;labelBackgroundColor=none;" parent="AqgVQKVdH_DSCZpF_KZi-171" vertex="1">
          <mxGeometry width="30" height="30" as="geometry">
            <mxRectangle width="30" height="30" as="alternateBounds" />
          </mxGeometry>
        </mxCell>
        <mxCell id="AqgVQKVdH_DSCZpF_KZi-173" value="created_at" style="shape=partialRectangle;connectable=0;fillColor=none;top=0;left=0;bottom=0;right=0;align=left;spacingLeft=6;overflow=hidden;whiteSpace=wrap;html=1;strokeColor=#788AA3;fontFamily=Helvetica;fontSize=12;fontColor=#46495D;startSize=23;labelBackgroundColor=none;" parent="AqgVQKVdH_DSCZpF_KZi-171" vertex="1">
          <mxGeometry x="30" width="150" height="30" as="geometry">
            <mxRectangle width="150" height="30" as="alternateBounds" />
          </mxGeometry>
        </mxCell>
        <mxCell id="AqgVQKVdH_DSCZpF_KZi-174" value="" style="shape=tableRow;horizontal=0;startSize=0;swimlaneHead=0;swimlaneBody=0;fillColor=none;collapsible=0;dropTarget=0;points=[[0,0.5],[1,0.5]];portConstraint=eastwest;top=0;left=0;right=0;bottom=0;strokeColor=#788AA3;fontFamily=Helvetica;fontSize=12;fontColor=#46495D;html=1;labelBackgroundColor=none;" parent="AqgVQKVdH_DSCZpF_KZi-161" vertex="1">
          <mxGeometry y="180" width="180" height="30" as="geometry" />
        </mxCell>
        <mxCell id="AqgVQKVdH_DSCZpF_KZi-175" value="" style="shape=partialRectangle;connectable=0;fillColor=none;top=0;left=0;bottom=0;right=0;editable=1;overflow=hidden;whiteSpace=wrap;html=1;strokeColor=#788AA3;fontFamily=Helvetica;fontSize=12;fontColor=#46495D;startSize=23;labelBackgroundColor=none;" parent="AqgVQKVdH_DSCZpF_KZi-174" vertex="1">
          <mxGeometry width="30" height="30" as="geometry">
            <mxRectangle width="30" height="30" as="alternateBounds" />
          </mxGeometry>
        </mxCell>
        <mxCell id="AqgVQKVdH_DSCZpF_KZi-176" value="updated_at" style="shape=partialRectangle;connectable=0;fillColor=none;top=0;left=0;bottom=0;right=0;align=left;spacingLeft=6;overflow=hidden;whiteSpace=wrap;html=1;strokeColor=#788AA3;fontFamily=Helvetica;fontSize=12;fontColor=#46495D;startSize=23;labelBackgroundColor=none;" parent="AqgVQKVdH_DSCZpF_KZi-174" vertex="1">
          <mxGeometry x="30" width="150" height="30" as="geometry">
            <mxRectangle width="150" height="30" as="alternateBounds" />
          </mxGeometry>
        </mxCell>
        <mxCell id="AqgVQKVdH_DSCZpF_KZi-180" value="" style="edgeStyle=elbowEdgeStyle;fontSize=12;html=1;endArrow=ERzeroToMany;endFill=1;fontFamily=Helvetica;fontColor=default;startSize=8;rounded=1;entryX=1;entryY=0.5;entryDx=0;entryDy=0;startArrow=ERone;startFill=0;endSize=9;labelBackgroundColor=none;strokeColor=#788AA3;exitX=0;exitY=0.5;exitDx=0;exitDy=0;" parent="WIyWlLk6GJQsqaUBKTNV-1" source="TtT6zjxbn2nU0OrpLk1x-126" target="AqgVQKVdH_DSCZpF_KZi-145" edge="1">
          <mxGeometry width="100" height="100" relative="1" as="geometry">
            <mxPoint x="810" y="615" as="sourcePoint" />
            <mxPoint x="680" y="845" as="targetPoint" />
          </mxGeometry>
        </mxCell>
        <mxCell id="AqgVQKVdH_DSCZpF_KZi-181" value="" style="edgeStyle=elbowEdgeStyle;fontSize=12;html=1;endArrow=ERzeroToMany;endFill=1;fontFamily=Helvetica;fontColor=default;startSize=8;rounded=1;startArrow=ERone;startFill=0;endSize=9;labelBackgroundColor=none;strokeColor=#788AA3;exitX=1;exitY=0.5;exitDx=0;exitDy=0;entryX=0;entryY=0.5;entryDx=0;entryDy=0;" parent="WIyWlLk6GJQsqaUBKTNV-1" target="AqgVQKVdH_DSCZpF_KZi-168" edge="1">
          <mxGeometry width="100" height="100" relative="1" as="geometry">
            <mxPoint x="310" y="585" as="sourcePoint" />
            <mxPoint x="420" y="1080" as="targetPoint" />
          </mxGeometry>
        </mxCell>
        <mxCell id="AqgVQKVdH_DSCZpF_KZi-182" value="Relationships" style="shape=table;startSize=30;container=1;collapsible=1;childLayout=tableLayout;fixedRows=1;rowLines=0;fontStyle=1;align=center;resizeLast=1;html=1;strokeColor=#006EAF;fontFamily=Helvetica;fontSize=12;fillColor=#1ba1e2;labelBackgroundColor=none;fontColor=#ffffff;" parent="WIyWlLk6GJQsqaUBKTNV-1" vertex="1">
          <mxGeometry x="400" y="960" width="180" height="180.00000000000023" as="geometry" />
        </mxCell>
        <mxCell id="AqgVQKVdH_DSCZpF_KZi-183" value="" style="shape=tableRow;horizontal=0;startSize=0;swimlaneHead=0;swimlaneBody=0;fillColor=none;collapsible=0;dropTarget=0;points=[[0,0.5],[1,0.5]];portConstraint=eastwest;top=0;left=0;right=0;bottom=1;strokeColor=#788AA3;fontFamily=Helvetica;fontSize=12;fontColor=#46495D;html=1;labelBackgroundColor=none;" parent="AqgVQKVdH_DSCZpF_KZi-182" vertex="1">
          <mxGeometry y="30" width="180" height="30" as="geometry" />
        </mxCell>
        <mxCell id="AqgVQKVdH_DSCZpF_KZi-184" value="PK" style="shape=partialRectangle;connectable=0;fillColor=none;top=0;left=0;bottom=0;right=0;fontStyle=1;overflow=hidden;whiteSpace=wrap;html=1;strokeColor=#788AA3;fontFamily=Helvetica;fontSize=12;fontColor=#46495D;startSize=23;labelBackgroundColor=none;" parent="AqgVQKVdH_DSCZpF_KZi-183" vertex="1">
          <mxGeometry width="30" height="30" as="geometry">
            <mxRectangle width="30" height="30" as="alternateBounds" />
          </mxGeometry>
        </mxCell>
        <mxCell id="AqgVQKVdH_DSCZpF_KZi-185" value="user_room_id" style="shape=partialRectangle;connectable=0;fillColor=none;top=0;left=0;bottom=0;right=0;align=left;spacingLeft=6;fontStyle=5;overflow=hidden;whiteSpace=wrap;html=1;strokeColor=#788AA3;fontFamily=Helvetica;fontSize=12;fontColor=#46495D;startSize=23;labelBackgroundColor=none;" parent="AqgVQKVdH_DSCZpF_KZi-183" vertex="1">
          <mxGeometry x="30" width="150" height="30" as="geometry">
            <mxRectangle width="150" height="30" as="alternateBounds" />
          </mxGeometry>
        </mxCell>
        <mxCell id="AqgVQKVdH_DSCZpF_KZi-186" value="" style="shape=tableRow;horizontal=0;startSize=0;swimlaneHead=0;swimlaneBody=0;fillColor=none;collapsible=0;dropTarget=0;points=[[0,0.5],[1,0.5]];portConstraint=eastwest;top=0;left=0;right=0;bottom=0;strokeColor=#788AA3;fontFamily=Helvetica;fontSize=12;fontColor=#46495D;html=1;labelBackgroundColor=none;" parent="AqgVQKVdH_DSCZpF_KZi-182" vertex="1">
          <mxGeometry y="60" width="180" height="30" as="geometry" />
        </mxCell>
        <mxCell id="AqgVQKVdH_DSCZpF_KZi-187" value="&lt;b&gt;FK&lt;/b&gt;" style="shape=partialRectangle;connectable=0;fillColor=none;top=0;left=0;bottom=0;right=0;editable=1;overflow=hidden;whiteSpace=wrap;html=1;strokeColor=#788AA3;fontFamily=Helvetica;fontSize=12;fontColor=#46495D;startSize=23;labelBackgroundColor=none;" parent="AqgVQKVdH_DSCZpF_KZi-186" vertex="1">
          <mxGeometry width="30" height="30" as="geometry">
            <mxRectangle width="30" height="30" as="alternateBounds" />
          </mxGeometry>
        </mxCell>
        <mxCell id="AqgVQKVdH_DSCZpF_KZi-188" value="&lt;u&gt;&lt;b&gt;user_id&lt;/b&gt;&lt;/u&gt;" style="shape=partialRectangle;connectable=0;fillColor=none;top=0;left=0;bottom=0;right=0;align=left;spacingLeft=6;overflow=hidden;whiteSpace=wrap;html=1;strokeColor=#788AA3;fontFamily=Helvetica;fontSize=12;fontColor=#46495D;startSize=23;labelBackgroundColor=none;" parent="AqgVQKVdH_DSCZpF_KZi-186" vertex="1">
          <mxGeometry x="30" width="150" height="30" as="geometry">
            <mxRectangle width="150" height="30" as="alternateBounds" />
          </mxGeometry>
        </mxCell>
        <mxCell id="AqgVQKVdH_DSCZpF_KZi-189" value="" style="shape=tableRow;horizontal=0;startSize=0;swimlaneHead=0;swimlaneBody=0;fillColor=none;collapsible=0;dropTarget=0;points=[[0,0.5],[1,0.5]];portConstraint=eastwest;top=0;left=0;right=0;bottom=1;strokeColor=#788AA3;fontFamily=Helvetica;fontSize=12;fontColor=#46495D;html=1;labelBackgroundColor=none;" parent="AqgVQKVdH_DSCZpF_KZi-182" vertex="1">
          <mxGeometry y="90" width="180" height="30" as="geometry" />
        </mxCell>
        <mxCell id="AqgVQKVdH_DSCZpF_KZi-190" value="FK" style="shape=partialRectangle;connectable=0;fillColor=none;top=0;left=0;bottom=0;right=0;fontStyle=1;overflow=hidden;whiteSpace=wrap;html=1;strokeColor=#788AA3;fontFamily=Helvetica;fontSize=12;fontColor=#46495D;startSize=23;labelBackgroundColor=none;" parent="AqgVQKVdH_DSCZpF_KZi-189" vertex="1">
          <mxGeometry width="30" height="30" as="geometry">
            <mxRectangle width="30" height="30" as="alternateBounds" />
          </mxGeometry>
        </mxCell>
        <mxCell id="AqgVQKVdH_DSCZpF_KZi-191" value="room_id" style="shape=partialRectangle;connectable=0;fillColor=none;top=0;left=0;bottom=0;right=0;align=left;spacingLeft=6;fontStyle=5;overflow=hidden;whiteSpace=wrap;html=1;strokeColor=#788AA3;fontFamily=Helvetica;fontSize=12;fontColor=#46495D;startSize=23;labelBackgroundColor=none;" parent="AqgVQKVdH_DSCZpF_KZi-189" vertex="1">
          <mxGeometry x="30" width="150" height="30" as="geometry">
            <mxRectangle width="150" height="30" as="alternateBounds" />
          </mxGeometry>
        </mxCell>
        <mxCell id="AqgVQKVdH_DSCZpF_KZi-195" value="" style="shape=tableRow;horizontal=0;startSize=0;swimlaneHead=0;swimlaneBody=0;fillColor=none;collapsible=0;dropTarget=0;points=[[0,0.5],[1,0.5]];portConstraint=eastwest;top=0;left=0;right=0;bottom=0;strokeColor=#788AA3;fontFamily=Helvetica;fontSize=12;fontColor=#46495D;html=1;labelBackgroundColor=none;" parent="AqgVQKVdH_DSCZpF_KZi-182" vertex="1">
          <mxGeometry y="120" width="180" height="30" as="geometry" />
        </mxCell>
        <mxCell id="AqgVQKVdH_DSCZpF_KZi-196" value="" style="shape=partialRectangle;connectable=0;fillColor=none;top=0;left=0;bottom=0;right=0;editable=1;overflow=hidden;whiteSpace=wrap;html=1;strokeColor=#788AA3;fontFamily=Helvetica;fontSize=12;fontColor=#46495D;startSize=23;labelBackgroundColor=none;" parent="AqgVQKVdH_DSCZpF_KZi-195" vertex="1">
          <mxGeometry width="30" height="30" as="geometry">
            <mxRectangle width="30" height="30" as="alternateBounds" />
          </mxGeometry>
        </mxCell>
        <mxCell id="AqgVQKVdH_DSCZpF_KZi-197" value="created_at" style="shape=partialRectangle;connectable=0;fillColor=none;top=0;left=0;bottom=0;right=0;align=left;spacingLeft=6;overflow=hidden;whiteSpace=wrap;html=1;strokeColor=#788AA3;fontFamily=Helvetica;fontSize=12;fontColor=#46495D;startSize=23;labelBackgroundColor=none;" parent="AqgVQKVdH_DSCZpF_KZi-195" vertex="1">
          <mxGeometry x="30" width="150" height="30" as="geometry">
            <mxRectangle width="150" height="30" as="alternateBounds" />
          </mxGeometry>
        </mxCell>
        <mxCell id="AqgVQKVdH_DSCZpF_KZi-198" value="" style="shape=tableRow;horizontal=0;startSize=0;swimlaneHead=0;swimlaneBody=0;fillColor=none;collapsible=0;dropTarget=0;points=[[0,0.5],[1,0.5]];portConstraint=eastwest;top=0;left=0;right=0;bottom=0;strokeColor=#788AA3;fontFamily=Helvetica;fontSize=12;fontColor=#46495D;html=1;labelBackgroundColor=none;" parent="AqgVQKVdH_DSCZpF_KZi-182" vertex="1">
          <mxGeometry y="150" width="180" height="30" as="geometry" />
        </mxCell>
        <mxCell id="AqgVQKVdH_DSCZpF_KZi-199" value="" style="shape=partialRectangle;connectable=0;fillColor=none;top=0;left=0;bottom=0;right=0;editable=1;overflow=hidden;whiteSpace=wrap;html=1;strokeColor=#788AA3;fontFamily=Helvetica;fontSize=12;fontColor=#46495D;startSize=23;labelBackgroundColor=none;" parent="AqgVQKVdH_DSCZpF_KZi-198" vertex="1">
          <mxGeometry width="30" height="30" as="geometry">
            <mxRectangle width="30" height="30" as="alternateBounds" />
          </mxGeometry>
        </mxCell>
        <mxCell id="AqgVQKVdH_DSCZpF_KZi-200" value="updated_at" style="shape=partialRectangle;connectable=0;fillColor=none;top=0;left=0;bottom=0;right=0;align=left;spacingLeft=6;overflow=hidden;whiteSpace=wrap;html=1;strokeColor=#788AA3;fontFamily=Helvetica;fontSize=12;fontColor=#46495D;startSize=23;labelBackgroundColor=none;" parent="AqgVQKVdH_DSCZpF_KZi-198" vertex="1">
          <mxGeometry x="30" width="150" height="30" as="geometry">
            <mxRectangle width="150" height="30" as="alternateBounds" />
          </mxGeometry>
        </mxCell>
        <mxCell id="AqgVQKVdH_DSCZpF_KZi-251" value="" style="edgeStyle=elbowEdgeStyle;fontSize=12;html=1;endArrow=ERzeroToMany;endFill=1;fontFamily=Helvetica;fontColor=default;startSize=8;rounded=1;entryX=1;entryY=0.5;entryDx=0;entryDy=0;startArrow=ERone;startFill=0;endSize=9;labelBackgroundColor=none;strokeColor=#788AA3;" parent="WIyWlLk6GJQsqaUBKTNV-1" source="ygLPfD_EKUeMDjVUtWBq-25" edge="1">
          <mxGeometry width="100" height="100" relative="1" as="geometry">
            <mxPoint x="800" y="970" as="sourcePoint" />
            <mxPoint x="690" y="1275" as="targetPoint" />
            <Array as="points">
              <mxPoint x="780" y="970" />
            </Array>
          </mxGeometry>
        </mxCell>
        <mxCell id="AqgVQKVdH_DSCZpF_KZi-253" value="" style="edgeStyle=elbowEdgeStyle;fontSize=12;html=1;endArrow=ERzeroToMany;endFill=1;fontFamily=Helvetica;fontColor=default;startSize=8;rounded=1;startArrow=ERone;startFill=0;endSize=9;labelBackgroundColor=none;strokeColor=#788AA3;exitX=0;exitY=0.5;exitDx=0;exitDy=0;entryX=0;entryY=0.5;entryDx=0;entryDy=0;" parent="WIyWlLk6GJQsqaUBKTNV-1" target="AqgVQKVdH_DSCZpF_KZi-189" edge="1">
          <mxGeometry width="100" height="100" relative="1" as="geometry">
            <mxPoint x="280" y="1245" as="sourcePoint" />
            <mxPoint x="480" y="1049" as="targetPoint" />
            <Array as="points">
              <mxPoint x="220" y="1120" />
            </Array>
          </mxGeometry>
        </mxCell>
        <mxCell id="AqgVQKVdH_DSCZpF_KZi-288" value="" style="edgeStyle=elbowEdgeStyle;fontSize=12;html=1;endArrow=ERzeroToMany;endFill=1;fontFamily=Helvetica;fontColor=default;startSize=8;rounded=1;entryX=1;entryY=0.5;entryDx=0;entryDy=0;startArrow=ERone;startFill=0;endSize=9;labelBackgroundColor=none;strokeColor=#788AA3;" parent="WIyWlLk6GJQsqaUBKTNV-1" source="ygLPfD_EKUeMDjVUtWBq-22" target="AqgVQKVdH_DSCZpF_KZi-186" edge="1">
          <mxGeometry width="100" height="100" relative="1" as="geometry">
            <mxPoint x="810" y="675" as="sourcePoint" />
            <mxPoint x="690" y="1265" as="targetPoint" />
          </mxGeometry>
        </mxCell>
        <mxCell id="AqgVQKVdH_DSCZpF_KZi-309" value="" style="edgeStyle=elbowEdgeStyle;fontSize=12;html=1;endArrow=ERzeroToMany;endFill=1;fontFamily=Helvetica;fontColor=default;startSize=8;rounded=1;startArrow=ERone;startFill=0;endSize=9;labelBackgroundColor=none;strokeColor=#788AA3;entryX=0;entryY=0.5;entryDx=0;entryDy=0;" parent="WIyWlLk6GJQsqaUBKTNV-1" source="ygLPfD_EKUeMDjVUtWBq-22" edge="1">
          <mxGeometry width="100" height="100" relative="1" as="geometry">
            <mxPoint x="990" y="670" as="sourcePoint" />
            <mxPoint x="1100" y="1055" as="targetPoint" />
            <Array as="points">
              <mxPoint x="1030" y="830" />
            </Array>
          </mxGeometry>
        </mxCell>
        <mxCell id="AqgVQKVdH_DSCZpF_KZi-326" value="Notification（通知）" style="shape=table;startSize=30;container=1;collapsible=1;childLayout=tableLayout;fixedRows=1;rowLines=0;fontStyle=1;align=center;resizeLast=1;html=1;strokeColor=#432D57;fontFamily=Helvetica;fontSize=12;fillColor=#76608a;labelBackgroundColor=none;fontColor=#ffffff;" parent="WIyWlLk6GJQsqaUBKTNV-1" vertex="1">
          <mxGeometry x="870" y="10" width="180" height="390.0000000000002" as="geometry" />
        </mxCell>
        <mxCell id="AqgVQKVdH_DSCZpF_KZi-327" value="" style="shape=tableRow;horizontal=0;startSize=0;swimlaneHead=0;swimlaneBody=0;fillColor=none;collapsible=0;dropTarget=0;points=[[0,0.5],[1,0.5]];portConstraint=eastwest;top=0;left=0;right=0;bottom=1;strokeColor=#788AA3;fontFamily=Helvetica;fontSize=12;fontColor=#46495D;html=1;labelBackgroundColor=none;" parent="AqgVQKVdH_DSCZpF_KZi-326" vertex="1">
          <mxGeometry y="30" width="180" height="30" as="geometry" />
        </mxCell>
        <mxCell id="AqgVQKVdH_DSCZpF_KZi-328" value="PK" style="shape=partialRectangle;connectable=0;fillColor=none;top=0;left=0;bottom=0;right=0;fontStyle=1;overflow=hidden;whiteSpace=wrap;html=1;strokeColor=#788AA3;fontFamily=Helvetica;fontSize=12;fontColor=#46495D;startSize=23;labelBackgroundColor=none;" parent="AqgVQKVdH_DSCZpF_KZi-327" vertex="1">
          <mxGeometry width="30" height="30" as="geometry">
            <mxRectangle width="30" height="30" as="alternateBounds" />
          </mxGeometry>
        </mxCell>
        <mxCell id="AqgVQKVdH_DSCZpF_KZi-329" value="notification_id" style="shape=partialRectangle;connectable=0;fillColor=none;top=0;left=0;bottom=0;right=0;align=left;spacingLeft=6;fontStyle=5;overflow=hidden;whiteSpace=wrap;html=1;strokeColor=#788AA3;fontFamily=Helvetica;fontSize=12;fontColor=#46495D;startSize=23;labelBackgroundColor=none;" parent="AqgVQKVdH_DSCZpF_KZi-327" vertex="1">
          <mxGeometry x="30" width="150" height="30" as="geometry">
            <mxRectangle width="150" height="30" as="alternateBounds" />
          </mxGeometry>
        </mxCell>
        <mxCell id="AqgVQKVdH_DSCZpF_KZi-330" value="" style="shape=tableRow;horizontal=0;startSize=0;swimlaneHead=0;swimlaneBody=0;fillColor=none;collapsible=0;dropTarget=0;points=[[0,0.5],[1,0.5]];portConstraint=eastwest;top=0;left=0;right=0;bottom=0;strokeColor=#788AA3;fontFamily=Helvetica;fontSize=12;fontColor=#46495D;html=1;labelBackgroundColor=none;" parent="AqgVQKVdH_DSCZpF_KZi-326" vertex="1">
          <mxGeometry y="60" width="180" height="30" as="geometry" />
        </mxCell>
        <mxCell id="AqgVQKVdH_DSCZpF_KZi-331" value="&lt;b&gt;FK&lt;/b&gt;" style="shape=partialRectangle;connectable=0;fillColor=none;top=0;left=0;bottom=0;right=0;editable=1;overflow=hidden;whiteSpace=wrap;html=1;strokeColor=#788AA3;fontFamily=Helvetica;fontSize=12;fontColor=#46495D;startSize=23;labelBackgroundColor=none;" parent="AqgVQKVdH_DSCZpF_KZi-330" vertex="1">
          <mxGeometry width="30" height="30" as="geometry">
            <mxRectangle width="30" height="30" as="alternateBounds" />
          </mxGeometry>
        </mxCell>
        <mxCell id="AqgVQKVdH_DSCZpF_KZi-332" value="&lt;u&gt;&lt;b&gt;user_id&lt;/b&gt;&lt;/u&gt;" style="shape=partialRectangle;connectable=0;fillColor=none;top=0;left=0;bottom=0;right=0;align=left;spacingLeft=6;overflow=hidden;whiteSpace=wrap;html=1;strokeColor=#788AA3;fontFamily=Helvetica;fontSize=12;fontColor=#46495D;startSize=23;labelBackgroundColor=none;" parent="AqgVQKVdH_DSCZpF_KZi-330" vertex="1">
          <mxGeometry x="30" width="150" height="30" as="geometry">
            <mxRectangle width="150" height="30" as="alternateBounds" />
          </mxGeometry>
        </mxCell>
        <mxCell id="ygLPfD_EKUeMDjVUtWBq-0" value="" style="shape=tableRow;horizontal=0;startSize=0;swimlaneHead=0;swimlaneBody=0;fillColor=none;collapsible=0;dropTarget=0;points=[[0,0.5],[1,0.5]];portConstraint=eastwest;top=0;left=0;right=0;bottom=0;strokeColor=#788AA3;fontFamily=Helvetica;fontSize=12;fontColor=#46495D;html=1;labelBackgroundColor=none;" parent="AqgVQKVdH_DSCZpF_KZi-326" vertex="1">
          <mxGeometry y="90" width="180" height="30" as="geometry" />
        </mxCell>
        <mxCell id="ygLPfD_EKUeMDjVUtWBq-1" value="&lt;b&gt;FK&lt;/b&gt;" style="shape=partialRectangle;connectable=0;fillColor=none;top=0;left=0;bottom=0;right=0;editable=1;overflow=hidden;whiteSpace=wrap;html=1;strokeColor=#788AA3;fontFamily=Helvetica;fontSize=12;fontColor=#46495D;startSize=23;labelBackgroundColor=none;" parent="ygLPfD_EKUeMDjVUtWBq-0" vertex="1">
          <mxGeometry width="30" height="30" as="geometry">
            <mxRectangle width="30" height="30" as="alternateBounds" />
          </mxGeometry>
        </mxCell>
        <mxCell id="ygLPfD_EKUeMDjVUtWBq-2" value="&lt;u&gt;&lt;b&gt;post_id&lt;/b&gt;&lt;/u&gt;" style="shape=partialRectangle;connectable=0;fillColor=none;top=0;left=0;bottom=0;right=0;align=left;spacingLeft=6;overflow=hidden;whiteSpace=wrap;html=1;strokeColor=#788AA3;fontFamily=Helvetica;fontSize=12;fontColor=#46495D;startSize=23;labelBackgroundColor=none;" parent="ygLPfD_EKUeMDjVUtWBq-0" vertex="1">
          <mxGeometry x="30" width="150" height="30" as="geometry">
            <mxRectangle width="150" height="30" as="alternateBounds" />
          </mxGeometry>
        </mxCell>
        <mxCell id="AqgVQKVdH_DSCZpF_KZi-354" value="" style="shape=tableRow;horizontal=0;startSize=0;swimlaneHead=0;swimlaneBody=0;fillColor=none;collapsible=0;dropTarget=0;points=[[0,0.5],[1,0.5]];portConstraint=eastwest;top=0;left=0;right=0;bottom=0;strokeColor=#788AA3;fontFamily=Helvetica;fontSize=12;fontColor=#46495D;html=1;labelBackgroundColor=none;" parent="AqgVQKVdH_DSCZpF_KZi-326" vertex="1">
          <mxGeometry y="120" width="180" height="30" as="geometry" />
        </mxCell>
        <mxCell id="AqgVQKVdH_DSCZpF_KZi-355" value="&lt;b&gt;FK&lt;/b&gt;" style="shape=partialRectangle;connectable=0;fillColor=none;top=0;left=0;bottom=0;right=0;editable=1;overflow=hidden;whiteSpace=wrap;html=1;strokeColor=#788AA3;fontFamily=Helvetica;fontSize=12;fontColor=#46495D;startSize=23;labelBackgroundColor=none;" parent="AqgVQKVdH_DSCZpF_KZi-354" vertex="1">
          <mxGeometry width="30" height="30" as="geometry">
            <mxRectangle width="30" height="30" as="alternateBounds" />
          </mxGeometry>
        </mxCell>
        <mxCell id="AqgVQKVdH_DSCZpF_KZi-356" value="&lt;u&gt;&lt;b&gt;comment_id&lt;/b&gt;&lt;/u&gt;" style="shape=partialRectangle;connectable=0;fillColor=none;top=0;left=0;bottom=0;right=0;align=left;spacingLeft=6;overflow=hidden;whiteSpace=wrap;html=1;strokeColor=#788AA3;fontFamily=Helvetica;fontSize=12;fontColor=#46495D;startSize=23;labelBackgroundColor=none;" parent="AqgVQKVdH_DSCZpF_KZi-354" vertex="1">
          <mxGeometry x="30" width="150" height="30" as="geometry">
            <mxRectangle width="150" height="30" as="alternateBounds" />
          </mxGeometry>
        </mxCell>
        <mxCell id="AqgVQKVdH_DSCZpF_KZi-357" value="" style="shape=tableRow;horizontal=0;startSize=0;swimlaneHead=0;swimlaneBody=0;fillColor=none;collapsible=0;dropTarget=0;points=[[0,0.5],[1,0.5]];portConstraint=eastwest;top=0;left=0;right=0;bottom=0;strokeColor=#788AA3;fontFamily=Helvetica;fontSize=12;fontColor=#46495D;html=1;labelBackgroundColor=none;" parent="AqgVQKVdH_DSCZpF_KZi-326" vertex="1">
          <mxGeometry y="150" width="180" height="30" as="geometry" />
        </mxCell>
        <mxCell id="AqgVQKVdH_DSCZpF_KZi-358" value="&lt;b&gt;FK&lt;/b&gt;" style="shape=partialRectangle;connectable=0;fillColor=none;top=0;left=0;bottom=0;right=0;editable=1;overflow=hidden;whiteSpace=wrap;html=1;strokeColor=#788AA3;fontFamily=Helvetica;fontSize=12;fontColor=#46495D;startSize=23;labelBackgroundColor=none;" parent="AqgVQKVdH_DSCZpF_KZi-357" vertex="1">
          <mxGeometry width="30" height="30" as="geometry">
            <mxRectangle width="30" height="30" as="alternateBounds" />
          </mxGeometry>
        </mxCell>
        <mxCell id="AqgVQKVdH_DSCZpF_KZi-359" value="&lt;u&gt;&lt;b&gt;favorite_id&lt;/b&gt;&lt;/u&gt;" style="shape=partialRectangle;connectable=0;fillColor=none;top=0;left=0;bottom=0;right=0;align=left;spacingLeft=6;overflow=hidden;whiteSpace=wrap;html=1;strokeColor=#788AA3;fontFamily=Helvetica;fontSize=12;fontColor=#46495D;startSize=23;labelBackgroundColor=none;" parent="AqgVQKVdH_DSCZpF_KZi-357" vertex="1">
          <mxGeometry x="30" width="150" height="30" as="geometry">
            <mxRectangle width="150" height="30" as="alternateBounds" />
          </mxGeometry>
        </mxCell>
        <mxCell id="ygLPfD_EKUeMDjVUtWBq-4" value="" style="shape=tableRow;horizontal=0;startSize=0;swimlaneHead=0;swimlaneBody=0;fillColor=none;collapsible=0;dropTarget=0;points=[[0,0.5],[1,0.5]];portConstraint=eastwest;top=0;left=0;right=0;bottom=0;strokeColor=#788AA3;fontFamily=Helvetica;fontSize=12;fontColor=#46495D;html=1;labelBackgroundColor=none;" parent="AqgVQKVdH_DSCZpF_KZi-326" vertex="1">
          <mxGeometry y="180" width="180" height="30" as="geometry" />
        </mxCell>
        <mxCell id="ygLPfD_EKUeMDjVUtWBq-5" value="&lt;b&gt;FK&lt;/b&gt;" style="shape=partialRectangle;connectable=0;fillColor=none;top=0;left=0;bottom=0;right=0;editable=1;overflow=hidden;whiteSpace=wrap;html=1;strokeColor=#788AA3;fontFamily=Helvetica;fontSize=12;fontColor=#46495D;startSize=23;labelBackgroundColor=none;" parent="ygLPfD_EKUeMDjVUtWBq-4" vertex="1">
          <mxGeometry width="30" height="30" as="geometry">
            <mxRectangle width="30" height="30" as="alternateBounds" />
          </mxGeometry>
        </mxCell>
        <mxCell id="ygLPfD_EKUeMDjVUtWBq-6" value="&lt;u&gt;&lt;b&gt;event_id&lt;/b&gt;&lt;/u&gt;" style="shape=partialRectangle;connectable=0;fillColor=none;top=0;left=0;bottom=0;right=0;align=left;spacingLeft=6;overflow=hidden;whiteSpace=wrap;html=1;strokeColor=#788AA3;fontFamily=Helvetica;fontSize=12;fontColor=#46495D;startSize=23;labelBackgroundColor=none;" parent="ygLPfD_EKUeMDjVUtWBq-4" vertex="1">
          <mxGeometry x="30" width="150" height="30" as="geometry">
            <mxRectangle width="150" height="30" as="alternateBounds" />
          </mxGeometry>
        </mxCell>
        <mxCell id="AqgVQKVdH_DSCZpF_KZi-360" value="" style="shape=tableRow;horizontal=0;startSize=0;swimlaneHead=0;swimlaneBody=0;fillColor=none;collapsible=0;dropTarget=0;points=[[0,0.5],[1,0.5]];portConstraint=eastwest;top=0;left=0;right=0;bottom=0;strokeColor=#788AA3;fontFamily=Helvetica;fontSize=12;fontColor=#46495D;html=1;labelBackgroundColor=none;" parent="AqgVQKVdH_DSCZpF_KZi-326" vertex="1">
          <mxGeometry y="210" width="180" height="30" as="geometry" />
        </mxCell>
        <mxCell id="AqgVQKVdH_DSCZpF_KZi-361" value="&lt;b&gt;FK&lt;/b&gt;" style="shape=partialRectangle;connectable=0;fillColor=none;top=0;left=0;bottom=0;right=0;editable=1;overflow=hidden;whiteSpace=wrap;html=1;strokeColor=#788AA3;fontFamily=Helvetica;fontSize=12;fontColor=#46495D;startSize=23;labelBackgroundColor=none;" parent="AqgVQKVdH_DSCZpF_KZi-360" vertex="1">
          <mxGeometry width="30" height="30" as="geometry">
            <mxRectangle width="30" height="30" as="alternateBounds" />
          </mxGeometry>
        </mxCell>
        <mxCell id="AqgVQKVdH_DSCZpF_KZi-362" value="&lt;u&gt;&lt;b&gt;room_id&lt;/b&gt;&lt;/u&gt;" style="shape=partialRectangle;connectable=0;fillColor=none;top=0;left=0;bottom=0;right=0;align=left;spacingLeft=6;overflow=hidden;whiteSpace=wrap;html=1;strokeColor=#788AA3;fontFamily=Helvetica;fontSize=12;fontColor=#46495D;startSize=23;labelBackgroundColor=none;" parent="AqgVQKVdH_DSCZpF_KZi-360" vertex="1">
          <mxGeometry x="30" width="150" height="30" as="geometry">
            <mxRectangle width="150" height="30" as="alternateBounds" />
          </mxGeometry>
        </mxCell>
        <mxCell id="AqgVQKVdH_DSCZpF_KZi-333" value="" style="shape=tableRow;horizontal=0;startSize=0;swimlaneHead=0;swimlaneBody=0;fillColor=none;collapsible=0;dropTarget=0;points=[[0,0.5],[1,0.5]];portConstraint=eastwest;top=0;left=0;right=0;bottom=1;strokeColor=#788AA3;fontFamily=Helvetica;fontSize=12;fontColor=#46495D;html=1;labelBackgroundColor=none;" parent="AqgVQKVdH_DSCZpF_KZi-326" vertex="1">
          <mxGeometry y="240" width="180" height="30" as="geometry" />
        </mxCell>
        <mxCell id="AqgVQKVdH_DSCZpF_KZi-334" value="FK" style="shape=partialRectangle;connectable=0;fillColor=none;top=0;left=0;bottom=0;right=0;fontStyle=1;overflow=hidden;whiteSpace=wrap;html=1;strokeColor=#788AA3;fontFamily=Helvetica;fontSize=12;fontColor=#46495D;startSize=23;labelBackgroundColor=none;" parent="AqgVQKVdH_DSCZpF_KZi-333" vertex="1">
          <mxGeometry width="30" height="30" as="geometry">
            <mxRectangle width="30" height="30" as="alternateBounds" />
          </mxGeometry>
        </mxCell>
        <mxCell id="AqgVQKVdH_DSCZpF_KZi-335" value="chat_id" style="shape=partialRectangle;connectable=0;fillColor=none;top=0;left=0;bottom=0;right=0;align=left;spacingLeft=6;fontStyle=5;overflow=hidden;whiteSpace=wrap;html=1;strokeColor=#788AA3;fontFamily=Helvetica;fontSize=12;fontColor=#46495D;startSize=23;labelBackgroundColor=none;" parent="AqgVQKVdH_DSCZpF_KZi-333" vertex="1">
          <mxGeometry x="30" width="150" height="30" as="geometry">
            <mxRectangle width="150" height="30" as="alternateBounds" />
          </mxGeometry>
        </mxCell>
        <mxCell id="AqgVQKVdH_DSCZpF_KZi-336" value="" style="shape=tableRow;horizontal=0;startSize=0;swimlaneHead=0;swimlaneBody=0;fillColor=none;collapsible=0;dropTarget=0;points=[[0,0.5],[1,0.5]];portConstraint=eastwest;top=0;left=0;right=0;bottom=0;strokeColor=#788AA3;fontFamily=Helvetica;fontSize=12;fontColor=#46495D;html=1;labelBackgroundColor=none;" parent="AqgVQKVdH_DSCZpF_KZi-326" vertex="1">
          <mxGeometry y="270" width="180" height="30" as="geometry" />
        </mxCell>
        <mxCell id="AqgVQKVdH_DSCZpF_KZi-337" value="" style="shape=partialRectangle;connectable=0;fillColor=none;top=0;left=0;bottom=0;right=0;editable=1;overflow=hidden;whiteSpace=wrap;html=1;strokeColor=#788AA3;fontFamily=Helvetica;fontSize=12;fontColor=#46495D;startSize=23;labelBackgroundColor=none;" parent="AqgVQKVdH_DSCZpF_KZi-336" vertex="1">
          <mxGeometry width="30" height="30" as="geometry">
            <mxRectangle width="30" height="30" as="alternateBounds" />
          </mxGeometry>
        </mxCell>
        <mxCell id="AqgVQKVdH_DSCZpF_KZi-338" value="acrtion" style="shape=partialRectangle;connectable=0;fillColor=none;top=0;left=0;bottom=0;right=0;align=left;spacingLeft=6;overflow=hidden;whiteSpace=wrap;html=1;strokeColor=#788AA3;fontFamily=Helvetica;fontSize=12;fontColor=#46495D;startSize=23;labelBackgroundColor=none;" parent="AqgVQKVdH_DSCZpF_KZi-336" vertex="1">
          <mxGeometry x="30" width="150" height="30" as="geometry">
            <mxRectangle width="150" height="30" as="alternateBounds" />
          </mxGeometry>
        </mxCell>
        <mxCell id="AqgVQKVdH_DSCZpF_KZi-346" value="" style="shape=tableRow;horizontal=0;startSize=0;swimlaneHead=0;swimlaneBody=0;fillColor=none;collapsible=0;dropTarget=0;points=[[0,0.5],[1,0.5]];portConstraint=eastwest;top=0;left=0;right=0;bottom=0;strokeColor=#788AA3;fontFamily=Helvetica;fontSize=12;fontColor=#46495D;html=1;labelBackgroundColor=none;" parent="AqgVQKVdH_DSCZpF_KZi-326" vertex="1">
          <mxGeometry y="300" width="180" height="30" as="geometry" />
        </mxCell>
        <mxCell id="AqgVQKVdH_DSCZpF_KZi-347" value="" style="shape=partialRectangle;connectable=0;fillColor=none;top=0;left=0;bottom=0;right=0;editable=1;overflow=hidden;whiteSpace=wrap;html=1;strokeColor=#788AA3;fontFamily=Helvetica;fontSize=12;fontColor=#46495D;startSize=23;labelBackgroundColor=none;" parent="AqgVQKVdH_DSCZpF_KZi-346" vertex="1">
          <mxGeometry width="30" height="30" as="geometry">
            <mxRectangle width="30" height="30" as="alternateBounds" />
          </mxGeometry>
        </mxCell>
        <mxCell id="AqgVQKVdH_DSCZpF_KZi-348" value="checked" style="shape=partialRectangle;connectable=0;fillColor=none;top=0;left=0;bottom=0;right=0;align=left;spacingLeft=6;overflow=hidden;whiteSpace=wrap;html=1;strokeColor=#788AA3;fontFamily=Helvetica;fontSize=12;fontColor=#46495D;startSize=23;labelBackgroundColor=none;" parent="AqgVQKVdH_DSCZpF_KZi-346" vertex="1">
          <mxGeometry x="30" width="150" height="30" as="geometry">
            <mxRectangle width="150" height="30" as="alternateBounds" />
          </mxGeometry>
        </mxCell>
        <mxCell id="AqgVQKVdH_DSCZpF_KZi-343" value="" style="shape=tableRow;horizontal=0;startSize=0;swimlaneHead=0;swimlaneBody=0;fillColor=none;collapsible=0;dropTarget=0;points=[[0,0.5],[1,0.5]];portConstraint=eastwest;top=0;left=0;right=0;bottom=0;strokeColor=#788AA3;fontFamily=Helvetica;fontSize=12;fontColor=#46495D;html=1;labelBackgroundColor=none;" parent="AqgVQKVdH_DSCZpF_KZi-326" vertex="1">
          <mxGeometry y="330" width="180" height="30" as="geometry" />
        </mxCell>
        <mxCell id="AqgVQKVdH_DSCZpF_KZi-344" value="" style="shape=partialRectangle;connectable=0;fillColor=none;top=0;left=0;bottom=0;right=0;editable=1;overflow=hidden;whiteSpace=wrap;html=1;strokeColor=#788AA3;fontFamily=Helvetica;fontSize=12;fontColor=#46495D;startSize=23;labelBackgroundColor=none;" parent="AqgVQKVdH_DSCZpF_KZi-343" vertex="1">
          <mxGeometry width="30" height="30" as="geometry">
            <mxRectangle width="30" height="30" as="alternateBounds" />
          </mxGeometry>
        </mxCell>
        <mxCell id="AqgVQKVdH_DSCZpF_KZi-345" value="created_at" style="shape=partialRectangle;connectable=0;fillColor=none;top=0;left=0;bottom=0;right=0;align=left;spacingLeft=6;overflow=hidden;whiteSpace=wrap;html=1;strokeColor=#788AA3;fontFamily=Helvetica;fontSize=12;fontColor=#46495D;startSize=23;labelBackgroundColor=none;" parent="AqgVQKVdH_DSCZpF_KZi-343" vertex="1">
          <mxGeometry x="30" width="150" height="30" as="geometry">
            <mxRectangle width="150" height="30" as="alternateBounds" />
          </mxGeometry>
        </mxCell>
        <mxCell id="AqgVQKVdH_DSCZpF_KZi-339" value="" style="shape=tableRow;horizontal=0;startSize=0;swimlaneHead=0;swimlaneBody=0;fillColor=none;collapsible=0;dropTarget=0;points=[[0,0.5],[1,0.5]];portConstraint=eastwest;top=0;left=0;right=0;bottom=0;strokeColor=#788AA3;fontFamily=Helvetica;fontSize=12;fontColor=#46495D;html=1;labelBackgroundColor=none;" parent="AqgVQKVdH_DSCZpF_KZi-326" vertex="1">
          <mxGeometry y="360" width="180" height="30" as="geometry" />
        </mxCell>
        <mxCell id="AqgVQKVdH_DSCZpF_KZi-340" value="" style="shape=partialRectangle;connectable=0;fillColor=none;top=0;left=0;bottom=0;right=0;editable=1;overflow=hidden;whiteSpace=wrap;html=1;strokeColor=#788AA3;fontFamily=Helvetica;fontSize=12;fontColor=#46495D;startSize=23;labelBackgroundColor=none;" parent="AqgVQKVdH_DSCZpF_KZi-339" vertex="1">
          <mxGeometry width="30" height="30" as="geometry">
            <mxRectangle width="30" height="30" as="alternateBounds" />
          </mxGeometry>
        </mxCell>
        <mxCell id="AqgVQKVdH_DSCZpF_KZi-341" value="updated_at" style="shape=partialRectangle;connectable=0;fillColor=none;top=0;left=0;bottom=0;right=0;align=left;spacingLeft=6;overflow=hidden;whiteSpace=wrap;html=1;strokeColor=#788AA3;fontFamily=Helvetica;fontSize=12;fontColor=#46495D;startSize=23;labelBackgroundColor=none;" parent="AqgVQKVdH_DSCZpF_KZi-339" vertex="1">
          <mxGeometry x="30" width="150" height="30" as="geometry">
            <mxRectangle width="150" height="30" as="alternateBounds" />
          </mxGeometry>
        </mxCell>
        <mxCell id="AqgVQKVdH_DSCZpF_KZi-342" value="" style="edgeStyle=elbowEdgeStyle;fontSize=12;html=1;endArrow=ERzeroToMany;endFill=1;fontFamily=Helvetica;fontColor=default;startSize=8;rounded=1;startArrow=ERone;startFill=0;endSize=9;labelBackgroundColor=none;strokeColor=#788AA3;exitX=1;exitY=0.5;exitDx=0;exitDy=0;entryX=0;entryY=0.5;entryDx=0;entryDy=0;" parent="WIyWlLk6GJQsqaUBKTNV-1" target="AqgVQKVdH_DSCZpF_KZi-333" edge="1">
          <mxGeometry width="100" height="100" relative="1" as="geometry">
            <mxPoint x="690" y="1305" as="sourcePoint" />
            <mxPoint x="1020" y="780" as="targetPoint" />
            <Array as="points">
              <mxPoint x="760" y="790" />
            </Array>
          </mxGeometry>
        </mxCell>
        <mxCell id="AqgVQKVdH_DSCZpF_KZi-349" value="" style="edgeStyle=elbowEdgeStyle;fontSize=12;html=1;endArrow=ERzeroToMany;endFill=1;fontFamily=Helvetica;fontColor=default;startSize=8;rounded=1;startArrow=ERone;startFill=0;endSize=9;labelBackgroundColor=none;strokeColor=#788AA3;entryX=0;entryY=0.5;entryDx=0;entryDy=0;exitX=0;exitY=0.5;exitDx=0;exitDy=0;" parent="WIyWlLk6GJQsqaUBKTNV-1" source="TtT6zjxbn2nU0OrpLk1x-123" target="AqgVQKVdH_DSCZpF_KZi-330" edge="1">
          <mxGeometry width="100" height="100" relative="1" as="geometry">
            <mxPoint x="540" y="60" as="sourcePoint" />
            <mxPoint x="740" y="60" as="targetPoint" />
            <Array as="points">
              <mxPoint x="770" y="105" />
            </Array>
          </mxGeometry>
        </mxCell>
        <mxCell id="AqgVQKVdH_DSCZpF_KZi-363" value="" style="edgeStyle=elbowEdgeStyle;fontSize=12;html=1;endArrow=ERzeroToMany;endFill=1;fontFamily=Helvetica;fontColor=default;startSize=8;rounded=1;startArrow=ERone;startFill=0;endSize=9;labelBackgroundColor=none;strokeColor=#788AA3;exitX=1;exitY=0.5;exitDx=0;exitDy=0;entryX=0;entryY=0.5;entryDx=0;entryDy=0;" parent="WIyWlLk6GJQsqaUBKTNV-1" source="AqgVQKVdH_DSCZpF_KZi-162" target="AqgVQKVdH_DSCZpF_KZi-354" edge="1">
          <mxGeometry width="100" height="100" relative="1" as="geometry">
            <mxPoint x="140" y="195" as="sourcePoint" />
            <mxPoint x="440" y="140" as="targetPoint" />
            <Array as="points">
              <mxPoint x="720" y="440" />
            </Array>
          </mxGeometry>
        </mxCell>
        <mxCell id="AqgVQKVdH_DSCZpF_KZi-364" value="" style="edgeStyle=elbowEdgeStyle;fontSize=12;html=1;endArrow=ERzeroToMany;endFill=1;fontFamily=Helvetica;fontColor=default;startSize=8;rounded=1;startArrow=ERone;startFill=0;endSize=9;labelBackgroundColor=none;strokeColor=#788AA3;exitX=1;exitY=0.5;exitDx=0;exitDy=0;entryX=0;entryY=0.5;entryDx=0;entryDy=0;" parent="WIyWlLk6GJQsqaUBKTNV-1" source="AqgVQKVdH_DSCZpF_KZi-142" target="AqgVQKVdH_DSCZpF_KZi-357" edge="1">
          <mxGeometry width="100" height="100" relative="1" as="geometry">
            <mxPoint x="200" y="170" as="sourcePoint" />
            <mxPoint x="500" y="115" as="targetPoint" />
            <Array as="points">
              <mxPoint x="700" y="190" />
            </Array>
          </mxGeometry>
        </mxCell>
        <mxCell id="AqgVQKVdH_DSCZpF_KZi-365" value="" style="edgeStyle=elbowEdgeStyle;fontSize=12;html=1;endArrow=ERzeroToMany;endFill=1;rounded=1;fontFamily=Helvetica;fontColor=default;startSize=8;startArrow=ERone;startFill=0;endSize=9;labelBackgroundColor=none;strokeColor=#788AA3;exitX=1;exitY=0.5;exitDx=0;exitDy=0;entryX=1;entryY=0.5;entryDx=0;entryDy=0;" parent="WIyWlLk6GJQsqaUBKTNV-1" target="ygLPfD_EKUeMDjVUtWBq-4" edge="1">
          <mxGeometry width="100" height="100" relative="1" as="geometry">
            <mxPoint x="1780.0000000000005" y="745" as="sourcePoint" />
            <mxPoint x="1390" y="170" as="targetPoint" />
            <Array as="points">
              <mxPoint x="1890" y="-40" />
            </Array>
          </mxGeometry>
        </mxCell>
        <mxCell id="ygLPfD_EKUeMDjVUtWBq-3" value="" style="edgeStyle=elbowEdgeStyle;fontSize=12;html=1;endArrow=ERzeroToMany;endFill=1;fontFamily=Helvetica;fontColor=default;startSize=8;rounded=1;startArrow=ERone;startFill=0;endSize=9;labelBackgroundColor=none;strokeColor=#788AA3;" parent="WIyWlLk6GJQsqaUBKTNV-1" target="ygLPfD_EKUeMDjVUtWBq-0" edge="1">
          <mxGeometry width="100" height="100" relative="1" as="geometry">
            <mxPoint x="180" y="420" as="sourcePoint" />
            <mxPoint x="480" y="275" as="targetPoint" />
            <Array as="points">
              <mxPoint x="180" y="290" />
            </Array>
          </mxGeometry>
        </mxCell>
        <mxCell id="ygLPfD_EKUeMDjVUtWBq-7" value="" style="edgeStyle=elbowEdgeStyle;fontSize=12;html=1;endArrow=ERzeroToMany;endFill=1;fontFamily=Helvetica;fontColor=default;startSize=8;rounded=1;startArrow=ERone;startFill=0;endSize=9;labelBackgroundColor=none;strokeColor=#788AA3;exitX=0;exitY=0.5;exitDx=0;exitDy=0;entryX=0;entryY=0.5;entryDx=0;entryDy=0;" parent="WIyWlLk6GJQsqaUBKTNV-1" target="AqgVQKVdH_DSCZpF_KZi-360" edge="1">
          <mxGeometry width="100" height="100" relative="1" as="geometry">
            <mxPoint x="280" y="1275" as="sourcePoint" />
            <mxPoint x="600" y="420" as="targetPoint" />
            <Array as="points">
              <mxPoint x="70" y="690" />
            </Array>
          </mxGeometry>
        </mxCell>
        <mxCell id="amjBT3HOfIgmp5ZAhak1-3" value="&lt;font color=&quot;#000000&quot;&gt;Tags（投稿）&lt;/font&gt;" style="shape=table;startSize=30;container=1;collapsible=1;childLayout=tableLayout;fixedRows=1;rowLines=0;fontStyle=1;align=center;resizeLast=1;html=1;strokeColor=#b85450;fontFamily=Helvetica;fontSize=12;fillColor=#f8cecc;labelBackgroundColor=none;" vertex="1" parent="WIyWlLk6GJQsqaUBKTNV-1">
          <mxGeometry x="120" y="670" width="180" height="210" as="geometry" />
        </mxCell>
        <mxCell id="amjBT3HOfIgmp5ZAhak1-4" value="" style="shape=tableRow;horizontal=0;startSize=0;swimlaneHead=0;swimlaneBody=0;fillColor=none;collapsible=0;dropTarget=0;points=[[0,0.5],[1,0.5]];portConstraint=eastwest;top=0;left=0;right=0;bottom=1;strokeColor=#788AA3;fontFamily=Helvetica;fontSize=12;fontColor=#46495D;html=1;labelBackgroundColor=none;" vertex="1" parent="amjBT3HOfIgmp5ZAhak1-3">
          <mxGeometry y="30" width="180" height="30" as="geometry" />
        </mxCell>
        <mxCell id="amjBT3HOfIgmp5ZAhak1-5" value="PK" style="shape=partialRectangle;connectable=0;fillColor=none;top=0;left=0;bottom=0;right=0;fontStyle=1;overflow=hidden;whiteSpace=wrap;html=1;strokeColor=#788AA3;fontFamily=Helvetica;fontSize=12;fontColor=#46495D;startSize=23;labelBackgroundColor=none;" vertex="1" parent="amjBT3HOfIgmp5ZAhak1-4">
          <mxGeometry width="30" height="30" as="geometry">
            <mxRectangle width="30" height="30" as="alternateBounds" />
          </mxGeometry>
        </mxCell>
        <mxCell id="amjBT3HOfIgmp5ZAhak1-6" value="post_id" style="shape=partialRectangle;connectable=0;fillColor=none;top=0;left=0;bottom=0;right=0;align=left;spacingLeft=6;fontStyle=5;overflow=hidden;whiteSpace=wrap;html=1;strokeColor=#788AA3;fontFamily=Helvetica;fontSize=12;fontColor=#46495D;startSize=23;labelBackgroundColor=none;" vertex="1" parent="amjBT3HOfIgmp5ZAhak1-4">
          <mxGeometry x="30" width="150" height="30" as="geometry">
            <mxRectangle width="150" height="30" as="alternateBounds" />
          </mxGeometry>
        </mxCell>
        <mxCell id="amjBT3HOfIgmp5ZAhak1-7" value="" style="shape=tableRow;horizontal=0;startSize=0;swimlaneHead=0;swimlaneBody=0;fillColor=none;collapsible=0;dropTarget=0;points=[[0,0.5],[1,0.5]];portConstraint=eastwest;top=0;left=0;right=0;bottom=1;strokeColor=#788AA3;fontFamily=Helvetica;fontSize=12;fontColor=#46495D;html=1;labelBackgroundColor=none;" vertex="1" parent="amjBT3HOfIgmp5ZAhak1-3">
          <mxGeometry y="60" width="180" height="30" as="geometry" />
        </mxCell>
        <mxCell id="amjBT3HOfIgmp5ZAhak1-8" value="FK" style="shape=partialRectangle;connectable=0;fillColor=none;top=0;left=0;bottom=0;right=0;fontStyle=1;overflow=hidden;whiteSpace=wrap;html=1;strokeColor=#788AA3;fontFamily=Helvetica;fontSize=12;fontColor=#46495D;startSize=23;labelBackgroundColor=none;" vertex="1" parent="amjBT3HOfIgmp5ZAhak1-7">
          <mxGeometry width="30" height="30" as="geometry">
            <mxRectangle width="30" height="30" as="alternateBounds" />
          </mxGeometry>
        </mxCell>
        <mxCell id="amjBT3HOfIgmp5ZAhak1-9" value="user_id" style="shape=partialRectangle;connectable=0;fillColor=none;top=0;left=0;bottom=0;right=0;align=left;spacingLeft=6;fontStyle=5;overflow=hidden;whiteSpace=wrap;html=1;strokeColor=#788AA3;fontFamily=Helvetica;fontSize=12;fontColor=#46495D;startSize=23;labelBackgroundColor=none;" vertex="1" parent="amjBT3HOfIgmp5ZAhak1-7">
          <mxGeometry x="30" width="150" height="30" as="geometry">
            <mxRectangle width="150" height="30" as="alternateBounds" />
          </mxGeometry>
        </mxCell>
        <mxCell id="amjBT3HOfIgmp5ZAhak1-10" value="" style="shape=tableRow;horizontal=0;startSize=0;swimlaneHead=0;swimlaneBody=0;fillColor=none;collapsible=0;dropTarget=0;points=[[0,0.5],[1,0.5]];portConstraint=eastwest;top=0;left=0;right=0;bottom=0;strokeColor=#788AA3;fontFamily=Helvetica;fontSize=12;fontColor=#46495D;html=1;labelBackgroundColor=none;" vertex="1" parent="amjBT3HOfIgmp5ZAhak1-3">
          <mxGeometry y="90" width="180" height="30" as="geometry" />
        </mxCell>
        <mxCell id="amjBT3HOfIgmp5ZAhak1-11" value="" style="shape=partialRectangle;connectable=0;fillColor=none;top=0;left=0;bottom=0;right=0;editable=1;overflow=hidden;whiteSpace=wrap;html=1;strokeColor=#788AA3;fontFamily=Helvetica;fontSize=12;fontColor=#46495D;startSize=23;labelBackgroundColor=none;" vertex="1" parent="amjBT3HOfIgmp5ZAhak1-10">
          <mxGeometry width="30" height="30" as="geometry">
            <mxRectangle width="30" height="30" as="alternateBounds" />
          </mxGeometry>
        </mxCell>
        <mxCell id="amjBT3HOfIgmp5ZAhak1-12" value="title" style="shape=partialRectangle;connectable=0;fillColor=none;top=0;left=0;bottom=0;right=0;align=left;spacingLeft=6;overflow=hidden;whiteSpace=wrap;html=1;strokeColor=#788AA3;fontFamily=Helvetica;fontSize=12;fontColor=#46495D;startSize=23;labelBackgroundColor=none;" vertex="1" parent="amjBT3HOfIgmp5ZAhak1-10">
          <mxGeometry x="30" width="150" height="30" as="geometry">
            <mxRectangle width="150" height="30" as="alternateBounds" />
          </mxGeometry>
        </mxCell>
        <mxCell id="amjBT3HOfIgmp5ZAhak1-13" value="" style="shape=tableRow;horizontal=0;startSize=0;swimlaneHead=0;swimlaneBody=0;fillColor=none;collapsible=0;dropTarget=0;points=[[0,0.5],[1,0.5]];portConstraint=eastwest;top=0;left=0;right=0;bottom=0;strokeColor=#788AA3;fontFamily=Helvetica;fontSize=12;fontColor=#46495D;html=1;labelBackgroundColor=none;" vertex="1" parent="amjBT3HOfIgmp5ZAhak1-3">
          <mxGeometry y="120" width="180" height="30" as="geometry" />
        </mxCell>
        <mxCell id="amjBT3HOfIgmp5ZAhak1-14" value="" style="shape=partialRectangle;connectable=0;fillColor=none;top=0;left=0;bottom=0;right=0;editable=1;overflow=hidden;whiteSpace=wrap;html=1;strokeColor=#788AA3;fontFamily=Helvetica;fontSize=12;fontColor=#46495D;startSize=23;labelBackgroundColor=none;" vertex="1" parent="amjBT3HOfIgmp5ZAhak1-13">
          <mxGeometry width="30" height="30" as="geometry">
            <mxRectangle width="30" height="30" as="alternateBounds" />
          </mxGeometry>
        </mxCell>
        <mxCell id="amjBT3HOfIgmp5ZAhak1-15" value="content（文章）" style="shape=partialRectangle;connectable=0;fillColor=none;top=0;left=0;bottom=0;right=0;align=left;spacingLeft=6;overflow=hidden;whiteSpace=wrap;html=1;strokeColor=#788AA3;fontFamily=Helvetica;fontSize=12;fontColor=#46495D;startSize=23;labelBackgroundColor=none;" vertex="1" parent="amjBT3HOfIgmp5ZAhak1-13">
          <mxGeometry x="30" width="150" height="30" as="geometry">
            <mxRectangle width="150" height="30" as="alternateBounds" />
          </mxGeometry>
        </mxCell>
        <mxCell id="amjBT3HOfIgmp5ZAhak1-16" value="" style="shape=tableRow;horizontal=0;startSize=0;swimlaneHead=0;swimlaneBody=0;fillColor=none;collapsible=0;dropTarget=0;points=[[0,0.5],[1,0.5]];portConstraint=eastwest;top=0;left=0;right=0;bottom=0;strokeColor=#788AA3;fontFamily=Helvetica;fontSize=12;fontColor=#46495D;html=1;labelBackgroundColor=none;" vertex="1" parent="amjBT3HOfIgmp5ZAhak1-3">
          <mxGeometry y="150" width="180" height="30" as="geometry" />
        </mxCell>
        <mxCell id="amjBT3HOfIgmp5ZAhak1-17" value="" style="shape=partialRectangle;connectable=0;fillColor=none;top=0;left=0;bottom=0;right=0;editable=1;overflow=hidden;whiteSpace=wrap;html=1;strokeColor=#788AA3;fontFamily=Helvetica;fontSize=12;fontColor=#46495D;startSize=23;labelBackgroundColor=none;" vertex="1" parent="amjBT3HOfIgmp5ZAhak1-16">
          <mxGeometry width="30" height="30" as="geometry">
            <mxRectangle width="30" height="30" as="alternateBounds" />
          </mxGeometry>
        </mxCell>
        <mxCell id="amjBT3HOfIgmp5ZAhak1-18" value="created_at" style="shape=partialRectangle;connectable=0;fillColor=none;top=0;left=0;bottom=0;right=0;align=left;spacingLeft=6;overflow=hidden;whiteSpace=wrap;html=1;strokeColor=#788AA3;fontFamily=Helvetica;fontSize=12;fontColor=#46495D;startSize=23;labelBackgroundColor=none;" vertex="1" parent="amjBT3HOfIgmp5ZAhak1-16">
          <mxGeometry x="30" width="150" height="30" as="geometry">
            <mxRectangle width="150" height="30" as="alternateBounds" />
          </mxGeometry>
        </mxCell>
        <mxCell id="amjBT3HOfIgmp5ZAhak1-19" value="" style="shape=tableRow;horizontal=0;startSize=0;swimlaneHead=0;swimlaneBody=0;fillColor=none;collapsible=0;dropTarget=0;points=[[0,0.5],[1,0.5]];portConstraint=eastwest;top=0;left=0;right=0;bottom=0;strokeColor=#788AA3;fontFamily=Helvetica;fontSize=12;fontColor=#46495D;html=1;labelBackgroundColor=none;" vertex="1" parent="amjBT3HOfIgmp5ZAhak1-3">
          <mxGeometry y="180" width="180" height="30" as="geometry" />
        </mxCell>
        <mxCell id="amjBT3HOfIgmp5ZAhak1-20" value="" style="shape=partialRectangle;connectable=0;fillColor=none;top=0;left=0;bottom=0;right=0;editable=1;overflow=hidden;whiteSpace=wrap;html=1;strokeColor=#788AA3;fontFamily=Helvetica;fontSize=12;fontColor=#46495D;startSize=23;labelBackgroundColor=none;" vertex="1" parent="amjBT3HOfIgmp5ZAhak1-19">
          <mxGeometry width="30" height="30" as="geometry">
            <mxRectangle width="30" height="30" as="alternateBounds" />
          </mxGeometry>
        </mxCell>
        <mxCell id="amjBT3HOfIgmp5ZAhak1-21" value="updated_at" style="shape=partialRectangle;connectable=0;fillColor=none;top=0;left=0;bottom=0;right=0;align=left;spacingLeft=6;overflow=hidden;whiteSpace=wrap;html=1;strokeColor=#788AA3;fontFamily=Helvetica;fontSize=12;fontColor=#46495D;startSize=23;labelBackgroundColor=none;" vertex="1" parent="amjBT3HOfIgmp5ZAhak1-19">
          <mxGeometry x="30" width="150" height="30" as="geometry">
            <mxRectangle width="150" height="30" as="alternateBounds" />
          </mxGeometry>
        </mxCell>
      </root>
    </mxGraphModel>
  </diagram>
</mxfile>
